<svg xmlns="http://www.w3.org/2000/svg" xmlns:xlink="http://www.w3.org/1999/xlink" width="1080" zoomAndPan="magnify" viewBox="0 0 810 809.999993" height="1080" preserveAspectRatio="xMidYMid meet" version="1.0"><path fill="#4338ca" d="M 297.660156 374.589844 C 295.964844 374.589844 294.277344 374.507812 292.589844 374.339844 C 290.902344 374.175781 289.226562 373.925781 287.566406 373.59375 C 285.902344 373.265625 284.261719 372.855469 282.640625 372.363281 C 281.019531 371.871094 279.425781 371.300781 277.859375 370.652344 C 276.292969 370.003906 274.761719 369.28125 273.269531 368.480469 C 271.773438 367.683594 270.324219 366.8125 268.914062 365.871094 C 267.503906 364.929688 266.144531 363.921875 264.835938 362.847656 C 263.523438 361.773438 262.269531 360.636719 261.074219 359.4375 C 259.875 358.242188 258.738281 356.988281 257.664062 355.679688 C 256.585938 354.367188 255.578125 353.007812 254.636719 351.601562 C 253.695312 350.191406 252.824219 348.742188 252.027344 347.246094 C 251.226562 345.753906 250.503906 344.222656 249.855469 342.65625 C 249.207031 341.09375 248.636719 339.5 248.144531 337.878906 C 247.652344 336.257812 247.242188 334.617188 246.910156 332.953125 C 246.582031 331.292969 246.332031 329.621094 246.167969 327.933594 C 246 326.246094 245.917969 324.558594 245.917969 322.863281 C 245.917969 321.167969 246 319.480469 246.167969 317.792969 C 246.332031 316.105469 246.582031 314.433594 246.910156 312.773438 C 247.242188 311.109375 247.652344 309.46875 248.144531 307.847656 C 248.636719 306.226562 249.207031 304.632812 249.855469 303.070312 C 250.503906 301.503906 251.226562 299.972656 252.027344 298.480469 C 252.824219 296.984375 253.695312 295.535156 254.636719 294.125 C 255.578125 292.71875 256.585938 291.359375 257.664062 290.046875 C 258.738281 288.738281 259.875 287.484375 261.074219 286.289062 C 262.269531 285.089844 263.523438 283.953125 264.835938 282.878906 C 266.144531 281.804688 267.503906 280.796875 268.914062 279.855469 C 270.324219 278.914062 271.773438 278.042969 273.269531 277.246094 C 274.761719 276.445312 276.292969 275.722656 277.859375 275.074219 C 279.425781 274.425781 281.019531 273.855469 282.640625 273.363281 C 284.261719 272.871094 285.902344 272.460938 287.566406 272.128906 C 289.226562 271.800781 290.902344 271.550781 292.589844 271.386719 C 294.277344 271.21875 295.964844 271.136719 297.660156 271.136719 C 299.355469 271.136719 301.046875 271.21875 302.734375 271.386719 C 304.417969 271.550781 306.09375 271.800781 307.753906 272.128906 C 309.417969 272.460938 311.058594 272.871094 312.679688 273.363281 C 314.304688 273.855469 315.898438 274.425781 317.460938 275.074219 C 319.027344 275.722656 320.558594 276.445312 322.054688 277.246094 C 323.546875 278.042969 325 278.914062 326.410156 279.855469 C 327.816406 280.796875 329.175781 281.804688 330.488281 282.878906 C 331.796875 283.953125 333.050781 285.089844 334.25 286.289062 C 335.449219 287.484375 336.585938 288.738281 337.660156 290.046875 C 338.734375 291.359375 339.742188 292.71875 340.683594 294.125 C 341.625 295.535156 342.496094 296.984375 343.296875 298.480469 C 344.09375 299.972656 344.816406 301.503906 345.464844 303.070312 C 346.113281 304.632812 346.683594 306.226562 347.175781 307.847656 C 347.667969 309.46875 348.082031 311.109375 348.410156 312.773438 C 348.742188 314.433594 348.988281 316.105469 349.15625 317.792969 C 349.320312 319.480469 349.40625 321.167969 349.40625 322.863281 C 349.40625 324.558594 349.320312 326.246094 349.15625 327.933594 C 348.988281 329.621094 348.742188 331.292969 348.410156 332.953125 C 348.082031 334.617188 347.667969 336.257812 347.175781 337.878906 C 346.683594 339.5 346.113281 341.09375 345.464844 342.65625 C 344.816406 344.222656 344.09375 345.753906 343.296875 347.246094 C 342.496094 348.742188 341.625 350.191406 340.683594 351.601562 C 339.742188 353.007812 338.734375 354.367188 337.660156 355.679688 C 336.585938 356.988281 335.449219 358.242188 334.25 359.4375 C 333.050781 360.636719 331.796875 361.773438 330.488281 362.847656 C 329.175781 363.921875 327.816406 364.929688 326.410156 365.871094 C 325 366.8125 323.546875 367.683594 322.054688 368.480469 C 320.558594 369.28125 319.027344 370.003906 317.460938 370.652344 C 315.898438 371.300781 314.304688 371.871094 312.679688 372.363281 C 311.058594 372.855469 309.417969 373.265625 307.753906 373.59375 C 306.09375 373.925781 304.417969 374.175781 302.734375 374.339844 C 301.046875 374.507812 299.355469 374.589844 297.660156 374.589844 Z M 297.660156 317.746094 C 297.324219 317.746094 296.992188 317.78125 296.664062 317.84375 C 296.332031 317.910156 296.011719 318.007812 295.703125 318.136719 C 295.390625 318.265625 295.097656 318.421875 294.816406 318.609375 C 294.539062 318.796875 294.28125 319.007812 294.042969 319.246094 C 293.804688 319.484375 293.59375 319.742188 293.40625 320.019531 C 293.21875 320.300781 293.0625 320.59375 292.933594 320.90625 C 292.804688 321.214844 292.707031 321.535156 292.640625 321.863281 C 292.578125 322.195312 292.542969 322.527344 292.542969 322.863281 C 292.542969 328.546875 302.777344 328.546875 302.777344 322.863281 C 302.777344 322.527344 302.746094 322.195312 302.679688 321.863281 C 302.613281 321.535156 302.515625 321.214844 302.390625 320.90625 C 302.261719 320.59375 302.101562 320.300781 301.917969 320.019531 C 301.730469 319.742188 301.515625 319.484375 301.28125 319.246094 C 301.042969 319.007812 300.785156 318.796875 300.503906 318.609375 C 300.226562 318.421875 299.929688 318.265625 299.621094 318.136719 C 299.308594 318.007812 298.988281 317.910156 298.660156 317.84375 C 298.328125 317.78125 297.996094 317.746094 297.660156 317.746094 Z M 297.660156 317.746094 " fill-opacity="1" fill-rule="nonzero"/><path fill="#4338ca" d="M 400.011719 810 C 193.605469 810 26.429688 639.472656 18.753906 420.632812 C 12.785156 248.96875 96.9375 123.914062 261.554688 59.117188 C 328.652344 32.683594 483.882812 0.570312 505.492188 25.292969 L 529.371094 53.714844 L 496.675781 70.199219 L 491.84375 71.050781 C 500.355469 72.015625 508.816406 73.292969 517.234375 74.882812 C 525.648438 76.476562 533.996094 78.378906 542.269531 80.589844 C 550.542969 82.804688 558.722656 85.320312 566.8125 88.140625 C 574.898438 90.964844 582.867188 94.082031 590.722656 97.496094 C 598.578125 100.910156 606.296875 104.613281 613.875 108.601562 C 621.453125 112.59375 628.871094 116.859375 636.132812 121.398438 C 643.394531 125.941406 650.476562 130.746094 657.382812 135.8125 C 664.285156 140.882812 670.988281 146.199219 677.496094 151.769531 C 682.148438 156.09375 686.679688 160.546875 691.089844 165.117188 C 695.5 169.691406 699.78125 174.378906 703.9375 179.183594 C 708.09375 183.988281 712.117188 188.902344 716.003906 193.925781 C 719.894531 198.945312 723.644531 204.070312 727.257812 209.296875 C 730.867188 214.523438 734.335938 219.84375 737.660156 225.253906 C 740.980469 230.667969 744.15625 236.167969 747.179688 241.753906 C 750.207031 247.339844 753.078125 253.003906 755.796875 258.746094 C 758.515625 264.484375 761.074219 270.296875 763.476562 276.175781 C 765.878906 282.054688 768.121094 287.996094 770.203125 293.996094 C 772.285156 300 774.199219 306.050781 775.953125 312.15625 C 777.707031 318.261719 779.292969 324.410156 780.710938 330.601562 C 782.128906 336.792969 783.378906 343.019531 784.460938 349.277344 C 785.542969 355.535156 786.457031 361.820312 787.195312 368.128906 C 787.9375 374.4375 788.507812 380.757812 788.90625 387.097656 C 789.304688 393.4375 789.53125 399.78125 789.582031 406.132812 C 789.636719 412.484375 789.519531 418.832031 789.230469 425.179688 C 789.199219 431.472656 789.011719 437.765625 788.671875 444.050781 C 788.332031 450.335938 787.839844 456.609375 787.195312 462.871094 C 786.546875 469.132812 785.75 475.375 784.796875 481.597656 C 783.847656 487.820312 782.746094 494.015625 781.492188 500.1875 C 780.238281 506.355469 778.835938 512.488281 777.28125 518.589844 C 775.730469 524.691406 774.027344 530.75 772.179688 536.765625 C 770.332031 542.785156 768.335938 548.753906 766.195312 554.671875 C 764.054688 560.59375 761.769531 566.457031 759.34375 572.265625 C 756.917969 578.074219 754.351562 583.820312 751.644531 589.503906 C 748.933594 595.1875 746.089844 600.800781 743.109375 606.347656 C 740.128906 611.890625 737.011719 617.359375 733.761719 622.753906 C 730.515625 628.144531 727.136719 633.457031 723.628906 638.683594 C 720.121094 643.910156 716.484375 649.050781 712.726562 654.101562 C 708.96875 659.148438 705.089844 664.105469 701.085938 668.96875 C 697.085938 673.828125 692.96875 678.589844 688.734375 683.25 C 684.5 687.910156 680.15625 692.460938 675.699219 696.910156 C 671.242188 701.359375 666.683594 705.695312 662.015625 709.921875 C 657.347656 714.144531 652.578125 718.253906 647.710938 722.246094 C 642.839844 726.238281 637.878906 730.109375 632.820312 733.859375 C 627.761719 737.613281 622.617188 741.238281 617.382812 744.734375 C 612.148438 748.234375 606.832031 751.605469 601.429688 754.84375 C 596.03125 758.082031 590.558594 761.191406 585.007812 764.160156 C 579.457031 767.132812 573.835938 769.96875 568.144531 772.667969 C 562.457031 775.367188 556.703125 777.925781 550.890625 780.339844 C 545.078125 782.757812 539.207031 785.035156 533.28125 787.164062 C 527.355469 789.296875 521.382812 791.28125 515.359375 793.121094 C 509.335938 794.960938 503.273438 796.652344 497.167969 798.195312 C 491.0625 799.738281 484.925781 801.132812 478.753906 802.375 C 472.578125 803.621094 466.378906 804.710938 460.152344 805.652344 C 453.925781 806.59375 447.679688 807.382812 441.417969 808.019531 C 435.152344 808.65625 428.875 809.140625 422.585938 809.46875 C 416.296875 809.800781 410.003906 809.976562 403.707031 810 Z M 343.148438 93.503906 C 334.320312 95.511719 325.566406 97.8125 316.886719 100.40625 C 308.210938 103 299.628906 105.878906 291.144531 109.046875 C 282.660156 112.210938 274.289062 115.660156 266.035156 119.382812 C 257.78125 123.109375 249.660156 127.105469 241.671875 131.375 C 233.6875 135.640625 225.851562 140.171875 218.167969 144.964844 C 210.480469 149.753906 202.964844 154.796875 195.617188 160.089844 C 188.269531 165.382812 181.109375 170.917969 174.132812 176.6875 C 167.15625 182.460938 160.378906 188.460938 153.800781 194.683594 C 150.324219 198.402344 146.949219 202.207031 143.671875 206.097656 C 140.394531 209.992188 137.21875 213.96875 134.148438 218.027344 C 131.078125 222.082031 128.113281 226.21875 125.257812 230.429688 C 122.402344 234.640625 119.65625 238.925781 117.023438 243.28125 C 114.390625 247.632812 111.875 252.054688 109.46875 256.539062 C 107.066406 261.027344 104.78125 265.570312 102.613281 270.175781 C 100.449219 274.777344 98.402344 279.4375 96.476562 284.144531 C 94.554688 288.855469 92.753906 293.613281 91.074219 298.417969 C 89.398438 303.222656 87.847656 308.066406 86.421875 312.953125 C 84.996094 317.835938 83.699219 322.753906 82.53125 327.707031 C 81.359375 332.660156 80.320312 337.636719 79.410156 342.644531 C 78.5 347.652344 77.71875 352.675781 77.070312 357.722656 C 76.421875 362.769531 75.90625 367.832031 75.519531 372.90625 C 75.132812 377.976562 74.878906 383.058594 74.757812 388.144531 C 74.636719 393.230469 74.648438 398.320312 74.789062 403.40625 C 74.933594 408.492188 75.210938 413.570312 75.617188 418.640625 C 82.15625 605.9375 224.59375 753.15625 400.011719 753.15625 L 403.707031 753.15625 C 409.058594 753.128906 414.40625 752.972656 419.75 752.6875 C 425.097656 752.398438 430.429688 751.980469 435.753906 751.433594 C 441.078125 750.886719 446.386719 750.210938 451.675781 749.40625 C 456.96875 748.601562 462.234375 747.667969 467.480469 746.609375 C 472.726562 745.546875 477.941406 744.359375 483.128906 743.042969 C 488.320312 741.730469 493.472656 740.289062 498.589844 738.722656 C 503.707031 737.160156 508.78125 735.46875 513.820312 733.660156 C 518.855469 731.847656 523.84375 729.914062 528.785156 727.859375 C 533.726562 725.804688 538.613281 723.628906 543.449219 721.335938 C 548.285156 719.046875 553.0625 716.636719 557.78125 714.113281 C 562.5 711.585938 567.152344 708.949219 571.742188 706.199219 C 576.335938 703.449219 580.855469 700.585938 585.304688 697.617188 C 589.757812 694.644531 594.132812 691.566406 598.433594 688.382812 C 602.734375 685.199219 606.957031 681.914062 611.097656 678.527344 C 615.238281 675.136719 619.296875 671.648438 623.265625 668.0625 C 627.238281 664.476562 631.121094 660.796875 634.914062 657.023438 C 638.707031 653.246094 642.40625 649.382812 646.007812 645.429688 C 649.613281 641.472656 653.121094 637.433594 656.527344 633.308594 C 659.933594 629.183594 663.242188 624.976562 666.445312 620.691406 C 669.648438 616.40625 672.746094 612.042969 675.734375 607.609375 C 678.726562 603.171875 681.609375 598.664062 684.378906 594.089844 C 687.152344 589.511719 689.8125 584.871094 692.355469 580.164062 C 694.902344 575.460938 697.332031 570.695312 699.648438 565.871094 C 701.960938 561.046875 704.15625 556.167969 706.234375 551.238281 C 708.308594 546.308594 710.265625 541.328125 712.101562 536.304688 C 713.933594 531.277344 715.644531 526.210938 717.234375 521.101562 C 718.820312 515.992188 720.285156 510.847656 721.621094 505.667969 C 722.960938 500.488281 724.171875 495.277344 725.253906 490.039062 C 726.339844 484.796875 727.296875 479.535156 728.125 474.25 C 728.953125 468.964844 729.652344 463.664062 730.222656 458.34375 C 730.789062 453.023438 731.230469 447.691406 731.542969 442.351562 C 731.851562 437.011719 732.035156 431.664062 732.085938 426.316406 C 732.359375 420.976562 732.488281 415.636719 732.476562 410.292969 C 732.464844 404.945312 732.304688 399.605469 732.003906 394.269531 C 731.699219 388.933594 731.253906 383.609375 730.664062 378.296875 C 730.074219 372.984375 729.339844 367.691406 728.464844 362.421875 C 727.589844 357.148438 726.570312 351.902344 725.410156 346.683594 C 724.25 341.46875 722.953125 336.285156 721.511719 331.136719 C 720.070312 325.992188 718.496094 320.886719 716.777344 315.824219 C 715.0625 310.761719 713.210938 305.75 711.226562 300.789062 C 709.238281 295.824219 707.117188 290.921875 704.867188 286.074219 C 702.613281 281.226562 700.234375 276.441406 697.722656 271.722656 C 695.210938 267.003906 692.578125 262.355469 689.816406 257.777344 C 687.054688 253.203125 684.167969 248.703125 681.164062 244.28125 C 678.160156 239.863281 675.039062 235.527344 671.796875 231.273438 C 668.558594 227.023438 665.207031 222.859375 661.742188 218.789062 C 658.277344 214.71875 654.707031 210.742188 651.027344 206.863281 C 647.347656 202.988281 643.566406 199.210938 639.683594 195.535156 C 575.714844 138.980469 481.894531 115.390625 375.277344 127.894531 L 351.964844 130.738281 L 344.570312 108.285156 C 343.304688 105.832031 342.527344 103.230469 342.230469 100.484375 C 341.9375 97.742188 342.148438 95.035156 342.867188 92.367188 Z M 343.148438 93.503906 " fill-opacity="1" fill-rule="nonzero"/><path fill="#4338ca" d="M 517.429688 374.875 C 515.738281 374.875 514.046875 374.789062 512.359375 374.625 C 510.671875 374.457031 509 374.210938 507.335938 373.878906 C 505.675781 373.550781 504.03125 373.136719 502.410156 372.644531 C 500.789062 372.15625 499.195312 371.585938 497.628906 370.9375 C 496.0625 370.289062 494.535156 369.566406 493.039062 368.765625 C 491.542969 367.96875 490.09375 367.097656 488.683594 366.15625 C 487.273438 365.214844 485.914062 364.207031 484.605469 363.132812 C 483.296875 362.058594 482.039062 360.921875 480.84375 359.722656 C 479.644531 358.527344 478.507812 357.273438 477.433594 355.960938 C 476.359375 354.652344 475.347656 353.292969 474.40625 351.886719 C 473.464844 350.476562 472.597656 349.023438 471.796875 347.53125 C 471 346.035156 470.273438 344.507812 469.625 342.941406 C 468.976562 341.378906 468.40625 339.785156 467.914062 338.164062 C 467.421875 336.542969 467.011719 334.898438 466.679688 333.238281 C 466.351562 331.578125 466.101562 329.902344 465.9375 328.21875 C 465.769531 326.53125 465.6875 324.839844 465.6875 323.148438 C 465.6875 321.453125 465.769531 319.761719 465.9375 318.078125 C 466.101562 316.390625 466.351562 314.71875 466.679688 313.054688 C 467.011719 311.394531 467.421875 309.753906 467.914062 308.132812 C 468.40625 306.511719 468.976562 304.917969 469.625 303.351562 C 470.273438 301.789062 471 300.257812 471.796875 298.765625 C 472.597656 297.269531 473.464844 295.816406 474.40625 294.410156 C 475.347656 293 476.359375 291.640625 477.433594 290.332031 C 478.507812 289.023438 479.644531 287.769531 480.84375 286.570312 C 482.039062 285.375 483.296875 284.238281 484.605469 283.164062 C 485.914062 282.085938 487.273438 281.078125 488.683594 280.136719 C 490.09375 279.199219 491.542969 278.328125 493.039062 277.527344 C 494.535156 276.730469 496.0625 276.007812 497.628906 275.359375 C 499.195312 274.710938 500.789062 274.140625 502.410156 273.648438 C 504.03125 273.15625 505.675781 272.746094 507.335938 272.414062 C 509 272.085938 510.671875 271.835938 512.359375 271.671875 C 514.046875 271.503906 515.738281 271.421875 517.429688 271.421875 C 519.125 271.421875 520.816406 271.503906 522.503906 271.671875 C 524.191406 271.835938 525.863281 272.085938 527.527344 272.414062 C 529.1875 272.746094 530.828125 273.15625 532.453125 273.648438 C 534.074219 274.140625 535.667969 274.710938 537.234375 275.359375 C 538.796875 276.007812 540.328125 276.730469 541.824219 277.527344 C 543.316406 278.328125 544.769531 279.199219 546.179688 280.136719 C 547.585938 281.078125 548.949219 282.085938 550.257812 283.164062 C 551.566406 284.238281 552.820312 285.375 554.019531 286.570312 C 555.21875 287.769531 556.355469 289.023438 557.429688 290.332031 C 558.503906 291.640625 559.511719 293 560.453125 294.410156 C 561.398438 295.816406 562.265625 297.269531 563.066406 298.765625 C 563.863281 300.257812 564.589844 301.789062 565.238281 303.351562 C 565.886719 304.917969 566.457031 306.511719 566.949219 308.132812 C 567.4375 309.753906 567.851562 311.394531 568.179688 313.054688 C 568.511719 314.71875 568.761719 316.390625 568.925781 318.078125 C 569.09375 319.761719 569.175781 321.453125 569.175781 323.148438 C 569.167969 324.839844 569.074219 326.527344 568.902344 328.207031 C 568.726562 329.890625 568.472656 331.5625 568.132812 333.21875 C 567.796875 334.875 567.378906 336.515625 566.882812 338.132812 C 566.386719 339.75 565.8125 341.335938 565.160156 342.898438 C 564.507812 344.460938 563.78125 345.984375 562.980469 347.476562 C 562.183594 348.964844 561.308594 350.414062 560.367188 351.816406 C 559.425781 353.222656 558.417969 354.578125 557.34375 355.886719 C 556.269531 357.191406 555.132812 358.445312 553.9375 359.640625 C 552.742188 360.835938 551.488281 361.972656 550.179688 363.046875 C 548.875 364.121094 547.519531 365.128906 546.113281 366.070312 C 544.707031 367.011719 543.257812 367.882812 541.765625 368.683594 C 540.277344 369.484375 538.75 370.210938 537.1875 370.859375 C 535.628906 371.511719 534.039062 372.085938 532.421875 372.582031 C 530.800781 373.078125 529.164062 373.496094 527.507812 373.832031 C 525.847656 374.171875 524.175781 374.425781 522.496094 374.597656 C 520.8125 374.773438 519.125 374.863281 517.429688 374.875 Z M 517.429688 318.03125 C 517.09375 318.03125 516.761719 318.0625 516.433594 318.128906 C 516.101562 318.195312 515.785156 318.292969 515.472656 318.421875 C 515.164062 318.550781 514.867188 318.707031 514.589844 318.894531 C 514.308594 319.082031 514.050781 319.292969 513.8125 319.53125 C 513.574219 319.765625 513.363281 320.027344 513.175781 320.304688 C 512.988281 320.585938 512.832031 320.878906 512.703125 321.191406 C 512.574219 321.5 512.476562 321.820312 512.410156 322.148438 C 512.347656 322.480469 512.3125 322.8125 512.3125 323.148438 C 512.3125 328.832031 522.265625 328.832031 522.265625 323.148438 C 522.265625 322.824219 522.234375 322.5 522.175781 322.183594 C 522.113281 321.863281 522.023438 321.554688 521.902344 321.253906 C 521.785156 320.953125 521.636719 320.664062 521.464844 320.390625 C 521.289062 320.117188 521.089844 319.863281 520.867188 319.625 C 520.644531 319.390625 520.402344 319.179688 520.136719 318.988281 C 519.875 318.800781 519.597656 318.636719 519.300781 318.5 C 519.007812 318.363281 518.703125 318.253906 518.390625 318.175781 C 518.074219 318.097656 517.753906 318.050781 517.429688 318.03125 Z M 517.429688 318.03125 " fill-opacity="1" fill-rule="nonzero"/><path fill="#4338ca" d="M 574.292969 582.632812 C 572.421875 582.640625 570.566406 582.46875 568.730469 582.117188 C 566.894531 581.761719 565.109375 581.230469 563.378906 580.523438 C 561.644531 579.816406 560 578.945312 558.441406 577.914062 C 556.878906 576.882812 555.433594 575.707031 554.105469 574.390625 L 517.429688 537.441406 L 480.753906 574.105469 C 480.097656 574.757812 479.410156 575.378906 478.691406 575.964844 C 477.972656 576.550781 477.226562 577.101562 476.453125 577.617188 C 475.683594 578.128906 474.886719 578.601562 474.066406 579.039062 C 473.25 579.472656 472.410156 579.867188 471.550781 580.222656 C 470.695312 580.578125 469.824219 580.886719 468.933594 581.15625 C 468.046875 581.421875 467.148438 581.648438 466.238281 581.828125 C 465.328125 582.007812 464.410156 582.144531 463.488281 582.234375 C 462.566406 582.324219 461.640625 582.371094 460.710938 582.371094 C 459.785156 582.371094 458.859375 582.324219 457.9375 582.234375 C 457.011719 582.144531 456.097656 582.007812 455.1875 581.828125 C 454.277344 581.648438 453.378906 581.421875 452.488281 581.15625 C 451.601562 580.886719 450.726562 580.578125 449.871094 580.222656 C 449.011719 579.867188 448.175781 579.472656 447.355469 579.039062 C 446.539062 578.601562 445.742188 578.128906 444.96875 577.617188 C 444.195312 577.101562 443.453125 576.550781 442.734375 575.964844 C 442.015625 575.378906 441.324219 574.757812 440.667969 574.105469 L 403.707031 537.441406 L 367.03125 574.105469 C 366.375 574.757812 365.6875 575.378906 364.96875 575.964844 C 364.25 576.550781 363.503906 577.101562 362.730469 577.617188 C 361.957031 578.128906 361.164062 578.601562 360.34375 579.039062 C 359.523438 579.472656 358.6875 579.867188 357.828125 580.222656 C 356.972656 580.578125 356.097656 580.886719 355.210938 581.15625 C 354.324219 581.421875 353.425781 581.648438 352.515625 581.828125 C 351.605469 582.007812 350.6875 582.144531 349.765625 582.234375 C 348.839844 582.324219 347.917969 582.371094 346.988281 582.371094 C 346.0625 582.371094 345.136719 582.324219 344.210938 582.234375 C 343.289062 582.144531 342.371094 582.007812 341.460938 581.828125 C 340.554688 581.648438 339.652344 581.421875 338.765625 581.15625 C 337.878906 580.886719 337.003906 580.578125 336.148438 580.222656 C 335.289062 579.867188 334.453125 579.472656 333.632812 579.039062 C 332.8125 578.601562 332.019531 578.128906 331.246094 577.617188 C 330.472656 577.101562 329.726562 576.550781 329.007812 575.964844 C 328.289062 575.378906 327.601562 574.757812 326.945312 574.105469 L 289.984375 537.441406 L 253.308594 574.105469 C 252.636719 574.679688 251.9375 575.222656 251.214844 575.734375 C 250.492188 576.246094 249.746094 576.71875 248.980469 577.160156 C 248.210938 577.601562 247.425781 578.007812 246.621094 578.375 C 245.8125 578.742188 244.992188 579.070312 244.15625 579.363281 C 243.320312 579.652344 242.472656 579.902344 241.613281 580.113281 C 240.753906 580.328125 239.886719 580.496094 239.011719 580.628906 C 238.136719 580.757812 237.253906 580.847656 236.371094 580.898438 C 235.488281 580.945312 234.601562 580.953125 233.71875 580.917969 C 232.832031 580.882812 231.953125 580.808594 231.074219 580.691406 C 230.199219 580.574219 229.328125 580.417969 228.464844 580.222656 C 227.601562 580.023438 226.75 579.785156 225.910156 579.507812 C 225.066406 579.230469 224.242188 578.914062 223.429688 578.5625 C 222.621094 578.207031 221.828125 577.816406 221.050781 577.386719 C 220.277344 576.957031 219.523438 576.496094 218.792969 575.996094 C 218.0625 575.496094 217.355469 574.964844 216.671875 574.402344 C 215.992188 573.835938 215.339844 573.242188 214.710938 572.613281 C 214.085938 571.988281 213.492188 571.335938 212.925781 570.652344 C 212.359375 569.972656 211.828125 569.265625 211.332031 568.535156 C 210.832031 567.804688 210.367188 567.050781 209.9375 566.277344 C 209.511719 565.503906 209.117188 564.710938 208.765625 563.898438 C 208.410156 563.089844 208.09375 562.261719 207.816406 561.421875 C 207.539062 560.582031 207.300781 559.730469 207.105469 558.867188 C 206.90625 558.003906 206.75 557.136719 206.632812 556.257812 C 206.515625 555.378906 206.441406 554.5 206.40625 553.613281 C 206.371094 552.730469 206.378906 551.847656 206.425781 550.964844 C 206.476562 550.078125 206.566406 549.199219 206.695312 548.324219 C 206.828125 547.449219 207 546.582031 207.210938 545.722656 C 207.421875 544.863281 207.671875 544.015625 207.964844 543.179688 C 208.253906 542.34375 208.582031 541.523438 208.953125 540.71875 C 209.320312 539.914062 209.722656 539.128906 210.164062 538.359375 C 210.605469 537.59375 211.082031 536.847656 211.589844 536.125 C 212.101562 535.402344 212.644531 534.703125 213.222656 534.03125 L 270.082031 477.191406 C 270.742188 476.535156 271.429688 475.914062 272.148438 475.328125 C 272.867188 474.742188 273.613281 474.191406 274.382812 473.679688 C 275.15625 473.164062 275.953125 472.691406 276.769531 472.257812 C 277.589844 471.820312 278.429688 471.425781 279.285156 471.070312 C 280.144531 470.71875 281.015625 470.40625 281.902344 470.140625 C 282.792969 469.871094 283.691406 469.648438 284.601562 469.464844 C 285.511719 469.285156 286.425781 469.152344 287.351562 469.0625 C 288.273438 468.96875 289.199219 468.925781 290.125 468.925781 C 291.054688 468.925781 291.980469 468.96875 292.902344 469.0625 C 293.828125 469.152344 294.742188 469.285156 295.652344 469.464844 C 296.5625 469.648438 297.460938 469.871094 298.347656 470.140625 C 299.238281 470.40625 300.109375 470.71875 300.96875 471.070312 C 301.824219 471.425781 302.664062 471.820312 303.480469 472.257812 C 304.300781 472.691406 305.097656 473.164062 305.871094 473.679688 C 306.640625 474.191406 307.386719 474.742188 308.105469 475.328125 C 308.824219 475.914062 309.511719 476.535156 310.171875 477.191406 L 346.847656 514.136719 L 383.523438 477.472656 C 384.179688 476.820312 384.867188 476.199219 385.585938 475.613281 C 386.304688 475.027344 387.050781 474.476562 387.824219 473.964844 C 388.597656 473.449219 389.390625 472.976562 390.210938 472.539062 C 391.027344 472.105469 391.867188 471.710938 392.726562 471.355469 C 393.582031 471.003906 394.457031 470.691406 395.34375 470.421875 C 396.230469 470.15625 397.128906 469.929688 398.039062 469.75 C 398.949219 469.570312 399.867188 469.433594 400.789062 469.34375 C 401.710938 469.253906 402.636719 469.210938 403.566406 469.210938 C 404.492188 469.210938 405.417969 469.253906 406.34375 469.34375 C 407.265625 469.433594 408.183594 469.570312 409.089844 469.75 C 410 469.929688 410.902344 470.15625 411.789062 470.421875 C 412.675781 470.691406 413.550781 471.003906 414.40625 471.355469 C 415.265625 471.710938 416.101562 472.105469 416.921875 472.539062 C 417.742188 472.976562 418.535156 473.449219 419.308594 473.964844 C 420.082031 474.476562 420.828125 475.027344 421.542969 475.613281 C 422.261719 476.199219 422.953125 476.820312 423.609375 477.472656 L 460.570312 514.136719 L 497.246094 477.472656 C 497.902344 476.820312 498.589844 476.199219 499.308594 475.613281 C 500.027344 475.027344 500.773438 474.476562 501.546875 473.964844 C 502.320312 473.449219 503.113281 472.976562 503.933594 472.539062 C 504.753906 472.105469 505.589844 471.710938 506.449219 471.355469 C 507.304688 471.003906 508.179688 470.691406 509.066406 470.421875 C 509.953125 470.15625 510.851562 469.929688 511.761719 469.75 C 512.671875 469.570312 513.589844 469.433594 514.511719 469.34375 C 515.4375 469.253906 516.363281 469.207031 517.289062 469.207031 C 518.21875 469.207031 519.140625 469.253906 520.066406 469.34375 C 520.988281 469.433594 521.90625 469.570312 522.816406 469.75 C 523.726562 469.929688 524.625 470.15625 525.511719 470.421875 C 526.398438 470.691406 527.273438 471.003906 528.128906 471.355469 C 528.988281 471.710938 529.824219 472.105469 530.644531 472.539062 C 531.464844 472.976562 532.257812 473.449219 533.03125 473.964844 C 533.804688 474.476562 534.550781 475.027344 535.269531 475.613281 C 535.988281 476.199219 536.675781 476.820312 537.332031 477.472656 L 594.195312 534.316406 C 595.164062 535.304688 596.054688 536.355469 596.871094 537.472656 C 597.683594 538.59375 598.414062 539.765625 599.058594 540.988281 C 599.703125 542.210938 600.253906 543.476562 600.714844 544.78125 C 601.171875 546.085938 601.535156 547.417969 601.800781 548.777344 C 602.0625 550.136719 602.230469 551.503906 602.292969 552.886719 C 602.359375 554.269531 602.320312 555.648438 602.183594 557.023438 C 602.046875 558.402344 601.8125 559.761719 601.476562 561.101562 C 601.140625 562.445312 600.710938 563.753906 600.183594 565.035156 C 599.65625 566.3125 599.039062 567.546875 598.332031 568.738281 C 597.625 569.925781 596.835938 571.058594 595.960938 572.132812 C 595.089844 573.207031 594.144531 574.210938 593.125 575.144531 C 592.105469 576.082031 591.023438 576.9375 589.878906 577.714844 C 588.734375 578.496094 587.539062 579.183594 586.292969 579.789062 C 585.050781 580.390625 583.765625 580.902344 582.445312 581.316406 C 581.128906 581.734375 579.785156 582.050781 578.417969 582.273438 C 577.050781 582.492188 575.675781 582.613281 574.292969 582.632812 Z M 574.292969 582.632812 " fill-opacity="1" fill-rule="nonzero"/></svg>