<svg xmlns="http://www.w3.org/2000/svg" xmlns:xlink="http://www.w3.org/1999/xlink" width="1080" zoomAndPan="magnify" viewBox="0 0 810 809.999993" height="1080" preserveAspectRatio="xMidYMid meet" version="1.0"><path fill="#4338ca" d="M 219.914062 809.730469 C 216.671875 809.714844 213.523438 809.175781 210.460938 808.117188 C 207.398438 807.058594 204.589844 805.53125 202.03125 803.542969 C 201.332031 803.023438 200.660156 802.476562 200.011719 801.898438 C 199.363281 801.320312 198.742188 800.714844 198.152344 800.082031 C 197.558594 799.445312 196.992188 798.789062 196.460938 798.101562 C 195.925781 797.417969 195.425781 796.710938 194.953125 795.980469 C 194.484375 795.25 194.046875 794.5 193.644531 793.730469 C 193.242188 792.960938 192.875 792.171875 192.542969 791.371094 C 192.214844 790.566406 191.917969 789.75 191.660156 788.921875 C 191.402344 788.09375 191.183594 787.253906 191 786.402344 C 190.816406 785.554688 190.675781 784.699219 190.570312 783.835938 C 190.464844 782.972656 190.398438 782.109375 190.371094 781.242188 C 190.34375 780.371094 190.355469 779.503906 190.40625 778.636719 C 190.457031 777.769531 190.546875 776.90625 190.675781 776.046875 C 190.804688 775.191406 190.972656 774.339844 191.179688 773.496094 C 191.382812 772.648438 191.628906 771.816406 191.910156 770.996094 C 192.191406 770.171875 192.507812 769.367188 192.859375 768.574219 C 193.214844 767.777344 193.601562 767.003906 194.027344 766.246094 L 194.167969 766 L 369.632812 455.089844 L 202.328125 455.089844 C 200.894531 455.089844 199.46875 454.980469 198.050781 454.769531 C 196.632812 454.558594 195.238281 454.246094 193.867188 453.828125 C 192.496094 453.414062 191.164062 452.902344 189.867188 452.289062 C 188.570312 451.679688 187.324219 450.976562 186.132812 450.179688 C 184.9375 449.386719 183.808594 448.511719 182.742188 447.550781 C 181.679688 446.59375 180.6875 445.558594 179.773438 444.457031 C 178.859375 443.351562 178.03125 442.1875 177.285156 440.960938 C 176.542969 439.734375 175.890625 438.460938 175.335938 437.140625 C 174.777344 435.820312 174.320312 434.464844 173.960938 433.074219 C 173.601562 431.6875 173.347656 430.28125 173.191406 428.855469 C 173.039062 427.429688 172.992188 426 173.046875 424.566406 C 173.105469 423.132812 173.265625 421.710938 173.527344 420.300781 C 173.792969 418.890625 174.15625 417.507812 174.625 416.152344 C 175.089844 414.796875 175.652344 413.480469 176.3125 412.207031 C 176.972656 410.933594 177.71875 409.714844 178.558594 408.554688 C 179.394531 407.390625 180.3125 406.292969 181.308594 405.261719 L 537.757812 12.171875 L 538.265625 11.628906 C 538.863281 11.03125 539.488281 10.457031 540.136719 9.914062 C 540.785156 9.367188 541.457031 8.851562 542.152344 8.367188 C 542.84375 7.878906 543.558594 7.425781 544.292969 7 C 545.023438 6.574219 545.773438 6.183594 546.542969 5.824219 C 547.308594 5.464844 548.089844 5.136719 548.882812 4.84375 C 549.679688 4.554688 550.484375 4.296875 551.304688 4.074219 C 552.121094 3.851562 552.945312 3.664062 553.78125 3.515625 C 554.613281 3.363281 555.453125 3.25 556.296875 3.171875 C 557.136719 3.09375 557.984375 3.050781 558.832031 3.046875 C 559.675781 3.039062 560.523438 3.074219 561.367188 3.140625 C 562.210938 3.210938 563.050781 3.3125 563.886719 3.453125 C 564.722656 3.597656 565.550781 3.773438 566.371094 3.984375 C 567.1875 4.199219 568 4.445312 568.796875 4.730469 C 569.59375 5.011719 570.378906 5.328125 571.152344 5.679688 C 571.921875 6.03125 572.675781 6.414062 573.414062 6.828125 C 574.152344 7.246094 574.871094 7.691406 575.570312 8.171875 C 576.269531 8.648438 576.945312 9.15625 577.601562 9.695312 C 578.257812 10.230469 578.886719 10.796875 579.496094 11.386719 C 580.101562 11.980469 580.679688 12.597656 581.234375 13.238281 C 581.785156 13.878906 582.3125 14.542969 582.808594 15.230469 C 583.300781 15.917969 583.765625 16.625 584.203125 17.355469 C 584.636719 18.082031 585.039062 18.828125 585.410156 19.589844 C 585.777344 20.351562 586.113281 21.128906 586.417969 21.921875 C 586.71875 22.710938 586.988281 23.515625 587.222656 24.328125 C 587.453125 25.144531 587.652344 25.96875 587.816406 26.800781 C 587.976562 27.632812 588.101562 28.46875 588.191406 29.3125 C 588.28125 30.15625 588.335938 31 588.351562 31.847656 C 588.367188 32.695312 588.347656 33.542969 588.292969 34.386719 C 588.234375 35.230469 588.140625 36.074219 588.011719 36.910156 C 587.882812 37.75 587.71875 38.578125 587.515625 39.402344 C 587.3125 40.226562 587.078125 41.039062 586.804688 41.84375 C 586.535156 42.644531 586.230469 43.433594 585.886719 44.210938 L 585.679688 44.667969 L 447.082031 334.71875 L 594.296875 334.71875 C 596.3125 334.71875 598.320312 334.867188 600.316406 335.164062 C 602.308594 335.460938 604.273438 335.898438 606.203125 336.480469 C 608.136719 337.066406 610.015625 337.785156 611.839844 338.644531 C 613.664062 339.503906 615.417969 340.488281 617.101562 341.605469 C 618.78125 342.722656 620.371094 343.953125 621.875 345.300781 C 623.375 346.648438 624.769531 348.101562 626.058594 349.652344 C 627.347656 351.207031 628.515625 352.84375 629.566406 354.570312 C 630.613281 356.292969 631.53125 358.082031 632.320312 359.941406 C 633.105469 361.800781 633.753906 363.707031 634.261719 365.660156 C 634.769531 367.613281 635.132812 369.59375 635.351562 371.601562 C 635.570312 373.605469 635.640625 375.617188 635.566406 377.636719 C 635.488281 379.652344 635.269531 381.652344 634.898438 383.636719 C 634.53125 385.621094 634.019531 387.570312 633.367188 389.480469 C 632.714844 391.390625 631.925781 393.242188 631 395.035156 C 630.074219 396.828125 629.023438 398.546875 627.851562 400.1875 C 626.675781 401.828125 625.386719 403.375 623.984375 404.824219 L 240.511719 800.929688 L 240.074219 801.367188 C 238.738281 802.679688 237.292969 803.851562 235.734375 804.882812 C 234.175781 805.914062 232.53125 806.789062 230.804688 807.507812 C 229.078125 808.222656 227.296875 808.765625 225.464844 809.140625 C 223.632812 809.515625 221.78125 809.710938 219.914062 809.730469 Z M 219.125 779.636719 Z M 204.34375 424.804688 L 371.15625 424.804688 C 371.785156 424.804688 372.417969 424.828125 373.046875 424.867188 C 373.679688 424.910156 374.308594 424.96875 374.933594 425.050781 C 375.558594 425.132812 376.183594 425.234375 376.804688 425.355469 C 377.421875 425.480469 378.039062 425.621094 378.648438 425.78125 C 379.257812 425.945312 379.863281 426.125 380.464844 426.328125 C 381.0625 426.527344 381.652344 426.746094 382.238281 426.984375 C 382.824219 427.226562 383.398438 427.484375 383.96875 427.757812 C 384.535156 428.035156 385.09375 428.328125 385.644531 428.640625 C 386.195312 428.953125 386.730469 429.285156 387.261719 429.632812 C 387.789062 429.976562 388.304688 430.34375 388.808594 430.722656 C 389.3125 431.101562 389.804688 431.5 390.285156 431.910156 C 390.761719 432.324219 391.226562 432.75 391.679688 433.195312 C 392.128906 433.636719 392.566406 434.09375 392.988281 434.5625 C 393.410156 435.035156 393.816406 435.515625 394.207031 436.015625 C 394.597656 436.511719 394.972656 437.019531 395.332031 437.539062 C 395.6875 438.0625 396.027344 438.59375 396.351562 439.136719 C 396.675781 439.679688 396.980469 440.230469 397.269531 440.792969 C 397.558594 441.355469 397.828125 441.929688 398.078125 442.507812 C 398.328125 443.089844 398.5625 443.675781 398.773438 444.269531 C 398.988281 444.867188 399.179688 445.46875 399.355469 446.074219 C 399.527344 446.683594 399.683594 447.296875 399.820312 447.914062 C 399.953125 448.53125 400.066406 449.152344 400.164062 449.777344 C 400.257812 450.402344 400.332031 451.03125 400.386719 451.660156 C 400.441406 452.289062 400.472656 452.921875 400.488281 453.550781 C 400.5 454.183594 400.496094 454.816406 400.46875 455.445312 C 400.441406 456.078125 400.390625 456.707031 400.324219 457.335938 C 400.257812 457.964844 400.167969 458.589844 400.058594 459.214844 C 399.953125 459.835938 399.824219 460.457031 399.675781 461.070312 C 399.527344 461.683594 399.359375 462.292969 399.171875 462.898438 C 398.984375 463.5 398.777344 464.097656 398.550781 464.6875 C 398.324219 465.277344 398.082031 465.859375 397.816406 466.433594 C 397.554688 467.011719 397.273438 467.574219 396.972656 468.132812 L 396.832031 468.378906 L 224.03125 774.570312 L 602.230469 383.792969 C 602.988281 383.011719 603.621094 382.132812 604.121094 381.164062 C 604.621094 380.195312 604.972656 379.175781 605.175781 378.105469 C 605.375 377.03125 605.417969 375.953125 605.300781 374.867188 C 605.179688 373.785156 604.910156 372.738281 604.484375 371.734375 C 604.058594 370.730469 603.5 369.808594 602.800781 368.96875 C 602.105469 368.132812 601.300781 367.410156 600.390625 366.808594 C 599.484375 366.207031 598.507812 365.75 597.460938 365.4375 C 596.417969 365.125 595.351562 364.96875 594.261719 364.96875 L 445.664062 364.96875 C 445.058594 364.96875 444.449219 364.949219 443.84375 364.914062 C 443.238281 364.875 442.636719 364.820312 442.03125 364.742188 C 441.429688 364.667969 440.832031 364.574219 440.234375 364.460938 C 439.636719 364.351562 439.046875 364.21875 438.457031 364.070312 C 437.871094 363.921875 437.285156 363.753906 436.707031 363.570312 C 436.128906 363.382812 435.558594 363.179688 434.992188 362.960938 C 434.429688 362.738281 433.871094 362.5 433.320312 362.246094 C 432.769531 361.992188 432.226562 361.71875 431.691406 361.429688 C 431.160156 361.140625 430.636719 360.835938 430.121094 360.511719 C 429.605469 360.191406 429.101562 359.855469 428.605469 359.5 C 428.113281 359.148438 427.628906 358.78125 427.160156 358.398438 C 426.6875 358.015625 426.230469 357.617188 425.78125 357.207031 C 425.335938 356.796875 424.902344 356.371094 424.484375 355.933594 C 424.0625 355.496094 423.65625 355.042969 423.265625 354.582031 C 422.871094 354.117188 422.492188 353.640625 422.132812 353.15625 C 421.769531 352.667969 421.421875 352.171875 421.089844 351.664062 C 420.757812 351.15625 420.441406 350.636719 420.140625 350.109375 C 419.839844 349.582031 419.558594 349.042969 419.292969 348.496094 C 419.023438 347.953125 418.777344 347.398438 418.542969 346.839844 C 418.3125 346.277344 418.097656 345.710938 417.898438 345.136719 C 417.703125 344.5625 417.523438 343.980469 417.363281 343.394531 C 417.199219 342.808594 417.058594 342.21875 416.933594 341.625 C 416.808594 341.03125 416.703125 340.433594 416.613281 339.832031 C 416.527344 339.230469 416.457031 338.628906 416.40625 338.023438 C 416.359375 337.417969 416.328125 336.8125 416.3125 336.203125 C 416.300781 335.597656 416.308594 334.992188 416.332031 334.382812 C 416.359375 333.777344 416.402344 333.171875 416.464844 332.566406 C 416.527344 331.964844 416.609375 331.363281 416.707031 330.761719 C 416.808594 330.164062 416.925781 329.570312 417.0625 328.976562 C 417.199219 328.386719 417.355469 327.796875 417.527344 327.214844 C 417.699219 326.632812 417.890625 326.058594 418.097656 325.488281 C 418.308594 324.917969 418.535156 324.355469 418.777344 323.796875 L 418.988281 323.34375 L 555.605469 37.53125 Z M 572.050781 38.128906 Z M 572.050781 38.128906 " fill-opacity="1" fill-rule="nonzero"/></svg>