<svg xmlns="http://www.w3.org/2000/svg" xmlns:xlink="http://www.w3.org/1999/xlink" width="1080" zoomAndPan="magnify" viewBox="0 0 810 809.999993" height="1080" preserveAspectRatio="xMidYMid meet" version="1.0"><path fill="#0d9488" d="M 774.09375 -0.34375 C 772.78125 -0.300781 771.472656 -0.1875 770.175781 0 L 563.476562 0 C 562.3125 -0.015625 561.152344 0.0234375 559.992188 0.125 C 558.832031 0.222656 557.679688 0.378906 556.535156 0.589844 C 555.390625 0.804688 554.261719 1.074219 553.144531 1.398438 C 552.027344 1.722656 550.925781 2.101562 549.847656 2.535156 C 548.765625 2.96875 547.710938 3.457031 546.679688 3.996094 C 545.648438 4.535156 544.644531 5.121094 543.671875 5.761719 C 542.699219 6.398438 541.757812 7.082031 540.851562 7.8125 C 539.949219 8.546875 539.082031 9.320312 538.25 10.136719 C 537.421875 10.953125 536.636719 11.808594 535.890625 12.707031 C 535.148438 13.601562 534.449219 14.53125 533.796875 15.496094 C 533.148438 16.457031 532.542969 17.453125 531.992188 18.476562 C 531.4375 19.5 530.9375 20.550781 530.488281 21.625 C 530.039062 22.699219 529.644531 23.789062 529.300781 24.902344 C 528.960938 26.015625 528.675781 27.144531 528.449219 28.285156 C 528.21875 29.425781 528.046875 30.574219 527.929688 31.734375 C 527.816406 32.890625 527.757812 34.054688 527.757812 35.21875 C 527.757812 36.382812 527.816406 37.542969 527.929688 38.699219 C 528.046875 39.859375 528.21875 41.007812 528.449219 42.148438 C 528.675781 43.289062 528.960938 44.417969 529.300781 45.53125 C 529.644531 46.644531 530.039062 47.738281 530.488281 48.8125 C 530.9375 49.882812 531.4375 50.933594 531.992188 51.957031 C 532.542969 52.980469 533.148438 53.976562 533.800781 54.941406 C 534.449219 55.90625 535.148438 56.835938 535.890625 57.730469 C 536.636719 58.625 537.421875 59.480469 538.25 60.296875 C 539.082031 61.113281 539.949219 61.890625 540.851562 62.621094 C 541.757812 63.351562 542.699219 64.035156 543.671875 64.675781 C 544.644531 65.3125 545.648438 65.902344 546.679688 66.441406 C 547.710938 66.976562 548.765625 67.464844 549.847656 67.898438 C 550.925781 68.332031 552.027344 68.710938 553.144531 69.035156 C 554.261719 69.363281 555.390625 69.632812 556.535156 69.84375 C 557.679688 70.058594 558.832031 70.210938 559.992188 70.3125 C 561.152344 70.410156 562.3125 70.453125 563.476562 70.433594 L 689.765625 70.433594 L 327.273438 432.925781 C 326.429688 433.734375 325.628906 434.585938 324.871094 435.472656 C 324.113281 436.363281 323.402344 437.285156 322.734375 438.246094 C 322.070312 439.207031 321.453125 440.199219 320.882812 441.21875 C 320.316406 442.238281 319.800781 443.285156 319.335938 444.359375 C 318.875 445.433594 318.464844 446.523438 318.109375 447.636719 C 317.753906 448.75 317.457031 449.878906 317.214844 451.023438 C 316.972656 452.164062 316.785156 453.316406 316.65625 454.480469 C 316.53125 455.640625 316.460938 456.804688 316.449219 457.972656 C 316.4375 459.144531 316.484375 460.308594 316.585938 461.472656 C 316.691406 462.636719 316.851562 463.792969 317.070312 464.941406 C 317.292969 466.085938 317.566406 467.222656 317.898438 468.34375 C 318.230469 469.460938 318.617188 470.5625 319.058594 471.644531 C 319.5 472.726562 319.996094 473.785156 320.542969 474.816406 C 321.089844 475.847656 321.6875 476.851562 322.332031 477.824219 C 322.980469 478.796875 323.671875 479.738281 324.414062 480.640625 C 325.152344 481.546875 325.9375 482.410156 326.761719 483.238281 C 327.589844 484.0625 328.453125 484.847656 329.359375 485.585938 C 330.261719 486.328125 331.203125 487.019531 332.175781 487.667969 C 333.148438 488.3125 334.152344 488.910156 335.183594 489.457031 C 336.214844 490.003906 337.273438 490.5 338.355469 490.941406 C 339.4375 491.382812 340.539062 491.769531 341.65625 492.101562 C 342.777344 492.433594 343.914062 492.707031 345.058594 492.929688 C 346.207031 493.148438 347.363281 493.308594 348.527344 493.414062 C 349.691406 493.515625 350.855469 493.5625 352.027344 493.550781 C 353.195312 493.539062 354.359375 493.46875 355.519531 493.339844 C 356.683594 493.214844 357.835938 493.027344 358.976562 492.785156 C 360.121094 492.542969 361.25 492.246094 362.363281 491.890625 C 363.476562 491.535156 364.566406 491.125 365.640625 490.664062 C 366.714844 490.199219 367.761719 489.683594 368.78125 489.117188 C 369.800781 488.546875 370.792969 487.929688 371.753906 487.265625 C 372.714844 486.597656 373.636719 485.886719 374.527344 485.128906 C 375.414062 484.371094 376.265625 483.570312 377.074219 482.726562 L 739.566406 120.234375 L 739.566406 246.523438 C 739.546875 247.6875 739.589844 248.847656 739.6875 250.007812 C 739.785156 251.167969 739.941406 252.320312 740.15625 253.464844 C 740.367188 254.605469 740.636719 255.738281 740.960938 256.855469 C 741.289062 257.972656 741.667969 259.074219 742.101562 260.152344 C 742.535156 261.234375 743.023438 262.289062 743.558594 263.320312 C 744.097656 264.351562 744.6875 265.355469 745.324219 266.328125 C 745.964844 267.300781 746.648438 268.242188 747.378906 269.148438 C 748.109375 270.050781 748.882812 270.917969 749.703125 271.75 C 750.519531 272.578125 751.375 273.363281 752.269531 274.105469 C 753.164062 274.851562 754.09375 275.550781 755.058594 276.199219 C 756.023438 276.851562 757.019531 277.457031 758.042969 278.007812 C 759.066406 278.5625 760.117188 279.0625 761.1875 279.511719 C 762.261719 279.960938 763.355469 280.355469 764.46875 280.695312 C 765.582031 281.039062 766.707031 281.324219 767.851562 281.550781 C 768.992188 281.78125 770.140625 281.953125 771.300781 282.066406 C 772.457031 282.183594 773.617188 282.242188 774.78125 282.242188 C 775.945312 282.242188 777.109375 282.183594 778.265625 282.066406 C 779.425781 281.953125 780.574219 281.78125 781.714844 281.550781 C 782.855469 281.324219 783.984375 281.039062 785.097656 280.695312 C 786.207031 280.355469 787.300781 279.960938 788.375 279.511719 C 789.449219 279.0625 790.5 278.5625 791.523438 278.007812 C 792.546875 277.457031 793.539062 276.851562 794.503906 276.199219 C 795.46875 275.550781 796.398438 274.851562 797.292969 274.105469 C 798.191406 273.363281 799.046875 272.578125 799.863281 271.75 C 800.679688 270.917969 801.453125 270.050781 802.1875 269.148438 C 802.917969 268.242188 803.601562 267.300781 804.238281 266.328125 C 804.878906 265.355469 805.464844 264.351562 806.003906 263.320312 C 806.542969 262.289062 807.03125 261.234375 807.464844 260.152344 C 807.898438 259.074219 808.277344 257.972656 808.601562 256.855469 C 808.925781 255.738281 809.195312 254.605469 809.410156 253.464844 C 809.621094 252.320312 809.777344 251.167969 809.875 250.007812 C 809.976562 248.847656 810.015625 247.6875 810 246.523438 L 810 39.6875 C 810.175781 38.425781 810.28125 37.15625 810.316406 35.878906 C 810.355469 34.605469 810.320312 33.332031 810.21875 32.058594 C 810.117188 30.785156 809.949219 29.523438 809.710938 28.269531 C 809.472656 27.015625 809.164062 25.78125 808.792969 24.5625 C 808.417969 23.339844 807.980469 22.144531 807.476562 20.972656 C 806.972656 19.800781 806.410156 18.65625 805.78125 17.546875 C 805.15625 16.433594 804.46875 15.363281 803.726562 14.324219 C 802.980469 13.289062 802.183594 12.296875 801.332031 11.34375 C 800.480469 10.394531 799.578125 9.496094 798.628906 8.644531 C 797.679688 7.792969 796.683594 6.992188 795.648438 6.25 C 794.613281 5.503906 793.539062 4.820312 792.425781 4.191406 C 791.316406 3.566406 790.175781 3 789.003906 2.496094 C 787.828125 1.992188 786.632812 1.554688 785.414062 1.183594 C 784.195312 0.808594 782.957031 0.503906 781.703125 0.265625 C 780.449219 0.0234375 779.1875 -0.144531 777.914062 -0.246094 C 776.644531 -0.347656 775.371094 -0.378906 774.09375 -0.34375 Z M 70.433594 140.871094 C 31.941406 140.871094 0 172.808594 0 211.304688 L 0 739.566406 C 0 778.058594 31.941406 810 70.433594 810 L 598.695312 810 C 637.191406 810 669.128906 778.058594 669.128906 739.566406 L 669.128906 296.597656 L 598.695312 367.03125 L 598.695312 739.566406 L 70.433594 739.566406 L 70.433594 211.304688 L 442.96875 211.304688 L 513.402344 140.871094 Z M 70.433594 140.871094 " fill-opacity="1" fill-rule="nonzero"/></svg>