<svg xmlns="http://www.w3.org/2000/svg" xmlns:xlink="http://www.w3.org/1999/xlink" width="1080" zoomAndPan="magnify" viewBox="0 0 810 809.999993" height="1080" preserveAspectRatio="xMidYMid meet" version="1.0"><defs><clipPath id="id1"><path d="M 365 717 L 465 717 L 465 810 L 365 810 Z M 365 717 " clip-rule="nonzero"/></clipPath><clipPath id="id2"><path d="M 427.457031 719.667969 C 430.621094 720.523438 433.675781 721.660156 436.617188 723.078125 C 439.5625 724.5 442.34375 726.171875 444.957031 728.101562 C 447.570312 730.03125 449.96875 732.179688 452.148438 734.546875 C 454.332031 736.914062 456.257812 739.453125 457.925781 742.164062 C 459.59375 744.875 460.96875 747.707031 462.058594 750.660156 C 463.144531 753.613281 463.921875 756.628906 464.390625 759.710938 C 464.855469 762.792969 465.003906 765.878906 464.832031 768.96875 C 464.660156 772.058594 464.171875 775.09375 463.367188 778.074219 C 462.5625 781.054688 461.457031 783.921875 460.050781 786.679688 C 458.644531 789.4375 456.964844 792.027344 455.011719 794.453125 C 453.058594 796.882812 450.871094 799.097656 448.445312 801.101562 C 446.019531 803.105469 443.402344 804.859375 440.597656 806.363281 C 437.792969 807.867188 434.851562 809.089844 431.777344 810.035156 C 428.699219 810.980469 425.546875 811.628906 422.320312 811.980469 C 419.089844 812.332031 415.84375 812.378906 412.585938 812.125 C 409.328125 811.867188 406.117188 811.3125 402.957031 810.457031 C 399.792969 809.605469 396.742188 808.46875 393.796875 807.046875 C 390.851562 805.628906 388.070312 803.953125 385.457031 802.023438 C 382.84375 800.09375 380.445312 797.945312 378.265625 795.582031 C 376.082031 793.214844 374.15625 790.675781 372.488281 787.964844 C 370.824219 785.25 369.445312 782.417969 368.355469 779.464844 C 367.269531 776.511719 366.492188 773.496094 366.023438 770.414062 C 365.558594 767.335938 365.410156 764.25 365.582031 761.160156 C 365.753906 758.070312 366.242188 755.035156 367.046875 752.054688 C 367.851562 749.074219 368.957031 746.203125 370.363281 743.449219 C 371.769531 740.691406 373.449219 738.097656 375.402344 735.671875 C 377.355469 733.246094 379.542969 731.03125 381.96875 729.027344 C 384.394531 727.023438 387.011719 725.269531 389.816406 723.765625 C 392.621094 722.261719 395.5625 721.039062 398.636719 720.089844 C 401.714844 719.144531 404.867188 718.496094 408.09375 718.144531 C 411.324219 717.792969 414.570312 717.746094 417.828125 718.003906 C 421.085938 718.257812 424.296875 718.816406 427.457031 719.667969 Z M 427.457031 719.667969 " clip-rule="nonzero"/></clipPath><clipPath id="id3"><path d="M 365 737 L 465 737 L 465 810 L 365 810 Z M 365 737 " clip-rule="nonzero"/></clipPath><clipPath id="id4"><path d="M 427.457031 719.667969 C 430.621094 720.523438 433.675781 721.660156 436.617188 723.078125 C 439.5625 724.5 442.34375 726.171875 444.957031 728.101562 C 447.570312 730.03125 449.96875 732.179688 452.148438 734.546875 C 454.332031 736.914062 456.257812 739.453125 457.925781 742.164062 C 459.59375 744.875 460.96875 747.707031 462.058594 750.660156 C 463.144531 753.613281 463.921875 756.628906 464.390625 759.710938 C 464.855469 762.792969 465.003906 765.878906 464.832031 768.96875 C 464.660156 772.058594 464.171875 775.09375 463.367188 778.074219 C 462.5625 781.054688 461.457031 783.921875 460.050781 786.679688 C 458.644531 789.4375 456.964844 792.027344 455.011719 794.453125 C 453.058594 796.882812 450.871094 799.097656 448.445312 801.101562 C 446.019531 803.105469 443.402344 804.859375 440.597656 806.363281 C 437.792969 807.867188 434.851562 809.089844 431.777344 810.035156 C 428.699219 810.980469 425.546875 811.628906 422.320312 811.980469 C 419.089844 812.332031 415.84375 812.378906 412.585938 812.125 C 409.328125 811.867188 406.117188 811.3125 402.957031 810.457031 C 399.792969 809.605469 396.742188 808.46875 393.796875 807.046875 C 390.851562 805.628906 388.070312 803.953125 385.457031 802.023438 C 382.84375 800.09375 380.445312 797.945312 378.265625 795.582031 C 376.082031 793.214844 374.15625 790.675781 372.488281 787.964844 C 370.824219 785.25 369.445312 782.417969 368.355469 779.464844 C 367.269531 776.511719 366.492188 773.496094 366.023438 770.414062 C 365.558594 767.335938 365.410156 764.25 365.582031 761.160156 C 365.753906 758.070312 366.242188 755.035156 367.046875 752.054688 C 367.851562 749.074219 368.957031 746.203125 370.363281 743.449219 C 371.769531 740.691406 373.449219 738.097656 375.402344 735.671875 C 377.355469 733.246094 379.542969 731.03125 381.96875 729.027344 C 384.394531 727.023438 387.011719 725.269531 389.816406 723.765625 C 392.621094 722.261719 395.5625 721.039062 398.636719 720.089844 C 401.714844 719.144531 404.867188 718.496094 408.09375 718.144531 C 411.324219 717.792969 414.570312 717.746094 417.828125 718.003906 C 421.085938 718.257812 424.296875 718.816406 427.457031 719.667969 Z M 427.457031 719.667969 " clip-rule="nonzero"/></clipPath><clipPath id="id5"><path d="M 180 313 L 650 313 L 650 736 L 180 736 Z M 180 313 " clip-rule="nonzero"/></clipPath><clipPath id="id6"><path d="M 647.390625 428.328125 L 574.988281 708.335938 C 574.988281 708.335938 417.863281 775.121094 230.574219 697.507812 L 181.410156 400.058594 C 180.957031 397.320312 180.660156 394.566406 180.511719 391.792969 C 180.367188 389.023438 180.378906 386.25 180.539062 383.480469 C 180.703125 380.707031 181.019531 377.953125 181.488281 375.21875 C 181.957031 372.480469 182.578125 369.78125 183.347656 367.113281 C 184.117188 364.445312 185.03125 361.832031 186.09375 359.265625 C 187.15625 356.699219 188.355469 354.203125 189.695312 351.769531 C 191.03125 349.339844 192.503906 346.988281 194.101562 344.722656 C 195.703125 342.453125 197.425781 340.28125 199.265625 338.207031 C 201.109375 336.128906 203.058594 334.164062 205.121094 332.304688 C 207.183594 330.445312 209.339844 328.707031 211.59375 327.089844 C 213.847656 325.46875 216.183594 323.980469 218.605469 322.625 C 221.023438 321.265625 223.511719 320.046875 226.066406 318.964844 C 228.625 317.882812 231.230469 316.945312 233.890625 316.15625 C 236.550781 315.367188 239.246094 314.726562 241.976562 314.234375 C 244.707031 313.742188 247.457031 313.40625 250.226562 313.222656 C 252.996094 313.039062 255.765625 313.007812 258.539062 313.132812 L 572.769531 327.28125 C 575.765625 327.417969 578.742188 327.71875 581.707031 328.1875 C 584.667969 328.652344 587.59375 329.285156 590.488281 330.078125 C 593.378906 330.871094 596.21875 331.820312 599.003906 332.929688 C 601.792969 334.039062 604.507812 335.300781 607.152344 336.710938 C 609.800781 338.121094 612.359375 339.675781 614.832031 341.371094 C 617.304688 343.070312 619.675781 344.898438 621.949219 346.859375 C 624.21875 348.820312 626.371094 350.898438 628.410156 353.097656 C 630.449219 355.300781 632.359375 357.605469 634.140625 360.019531 C 635.921875 362.433594 637.566406 364.9375 639.070312 367.53125 C 640.570312 370.128906 641.925781 372.800781 643.132812 375.546875 C 644.339844 378.292969 645.390625 381.097656 646.285156 383.960938 C 647.179688 386.824219 647.910156 389.730469 648.484375 392.675781 C 649.054688 395.621094 649.460938 398.585938 649.699219 401.578125 C 649.941406 404.570312 650.015625 407.5625 649.925781 410.5625 C 649.832031 413.558594 649.574219 416.542969 649.152344 419.515625 C 648.726562 422.484375 648.140625 425.421875 647.390625 428.328125 Z M 647.390625 428.328125 " clip-rule="nonzero"/></clipPath><clipPath id="id7"><path d="M 194 313 L 607 313 L 607 420 L 194 420 Z M 194 313 " clip-rule="nonzero"/></clipPath><clipPath id="id8"><path d="M 647.390625 428.328125 L 574.988281 708.335938 C 574.988281 708.335938 417.863281 775.121094 230.574219 697.507812 L 181.410156 400.058594 C 180.957031 397.320312 180.660156 394.566406 180.511719 391.792969 C 180.367188 389.023438 180.378906 386.25 180.539062 383.480469 C 180.703125 380.707031 181.019531 377.953125 181.488281 375.21875 C 181.957031 372.480469 182.578125 369.78125 183.347656 367.113281 C 184.117188 364.445312 185.03125 361.832031 186.09375 359.265625 C 187.15625 356.699219 188.355469 354.203125 189.695312 351.769531 C 191.03125 349.339844 192.503906 346.988281 194.101562 344.722656 C 195.703125 342.453125 197.425781 340.28125 199.265625 338.207031 C 201.109375 336.128906 203.058594 334.164062 205.121094 332.304688 C 207.183594 330.445312 209.339844 328.707031 211.59375 327.089844 C 213.847656 325.46875 216.183594 323.980469 218.605469 322.625 C 221.023438 321.265625 223.511719 320.046875 226.066406 318.964844 C 228.625 317.882812 231.230469 316.945312 233.890625 316.15625 C 236.550781 315.367188 239.246094 314.726562 241.976562 314.234375 C 244.707031 313.742188 247.457031 313.40625 250.226562 313.222656 C 252.996094 313.039062 255.765625 313.007812 258.539062 313.132812 L 572.769531 327.28125 C 575.765625 327.417969 578.742188 327.71875 581.707031 328.1875 C 584.667969 328.652344 587.59375 329.285156 590.488281 330.078125 C 593.378906 330.871094 596.21875 331.820312 599.003906 332.929688 C 601.792969 334.039062 604.507812 335.300781 607.152344 336.710938 C 609.800781 338.121094 612.359375 339.675781 614.832031 341.371094 C 617.304688 343.070312 619.675781 344.898438 621.949219 346.859375 C 624.21875 348.820312 626.371094 350.898438 628.410156 353.097656 C 630.449219 355.300781 632.359375 357.605469 634.140625 360.019531 C 635.921875 362.433594 637.566406 364.9375 639.070312 367.53125 C 640.570312 370.128906 641.925781 372.800781 643.132812 375.546875 C 644.339844 378.292969 645.390625 381.097656 646.285156 383.960938 C 647.179688 386.824219 647.910156 389.730469 648.484375 392.675781 C 649.054688 395.621094 649.460938 398.585938 649.699219 401.578125 C 649.941406 404.570312 650.015625 407.5625 649.925781 410.5625 C 649.832031 413.558594 649.574219 416.542969 649.152344 419.515625 C 648.726562 422.484375 648.140625 425.421875 647.390625 428.328125 Z M 647.390625 428.328125 " clip-rule="nonzero"/></clipPath><clipPath id="id9"><path d="M 481 366 L 650 366 L 650 736 L 481 736 Z M 481 366 " clip-rule="nonzero"/></clipPath><clipPath id="id10"><path d="M 647.390625 428.328125 L 574.988281 708.335938 C 574.988281 708.335938 417.863281 775.121094 230.574219 697.507812 L 181.410156 400.058594 C 180.957031 397.320312 180.660156 394.566406 180.511719 391.792969 C 180.367188 389.023438 180.378906 386.25 180.539062 383.480469 C 180.703125 380.707031 181.019531 377.953125 181.488281 375.21875 C 181.957031 372.480469 182.578125 369.78125 183.347656 367.113281 C 184.117188 364.445312 185.03125 361.832031 186.09375 359.265625 C 187.15625 356.699219 188.355469 354.203125 189.695312 351.769531 C 191.03125 349.339844 192.503906 346.988281 194.101562 344.722656 C 195.703125 342.453125 197.425781 340.28125 199.265625 338.207031 C 201.109375 336.128906 203.058594 334.164062 205.121094 332.304688 C 207.183594 330.445312 209.339844 328.707031 211.59375 327.089844 C 213.847656 325.46875 216.183594 323.980469 218.605469 322.625 C 221.023438 321.265625 223.511719 320.046875 226.066406 318.964844 C 228.625 317.882812 231.230469 316.945312 233.890625 316.15625 C 236.550781 315.367188 239.246094 314.726562 241.976562 314.234375 C 244.707031 313.742188 247.457031 313.40625 250.226562 313.222656 C 252.996094 313.039062 255.765625 313.007812 258.539062 313.132812 L 572.769531 327.28125 C 575.765625 327.417969 578.742188 327.71875 581.707031 328.1875 C 584.667969 328.652344 587.59375 329.285156 590.488281 330.078125 C 593.378906 330.871094 596.21875 331.820312 599.003906 332.929688 C 601.792969 334.039062 604.507812 335.300781 607.152344 336.710938 C 609.800781 338.121094 612.359375 339.675781 614.832031 341.371094 C 617.304688 343.070312 619.675781 344.898438 621.949219 346.859375 C 624.21875 348.820312 626.371094 350.898438 628.410156 353.097656 C 630.449219 355.300781 632.359375 357.605469 634.140625 360.019531 C 635.921875 362.433594 637.566406 364.9375 639.070312 367.53125 C 640.570312 370.128906 641.925781 372.800781 643.132812 375.546875 C 644.339844 378.292969 645.390625 381.097656 646.285156 383.960938 C 647.179688 386.824219 647.910156 389.730469 648.484375 392.675781 C 649.054688 395.621094 649.460938 398.585938 649.699219 401.578125 C 649.941406 404.570312 650.015625 407.5625 649.925781 410.5625 C 649.832031 413.558594 649.574219 416.542969 649.152344 419.515625 C 648.726562 422.484375 648.140625 425.421875 647.390625 428.328125 Z M 647.390625 428.328125 " clip-rule="nonzero"/></clipPath><clipPath id="id11"><path d="M 180 351 L 341 351 L 341 732 L 180 732 Z M 180 351 " clip-rule="nonzero"/></clipPath><clipPath id="id12"><path d="M 647.390625 428.328125 L 574.988281 708.335938 C 574.988281 708.335938 417.863281 775.121094 230.574219 697.507812 L 181.410156 400.058594 C 180.957031 397.320312 180.660156 394.566406 180.511719 391.792969 C 180.367188 389.023438 180.378906 386.25 180.539062 383.480469 C 180.703125 380.707031 181.019531 377.953125 181.488281 375.21875 C 181.957031 372.480469 182.578125 369.78125 183.347656 367.113281 C 184.117188 364.445312 185.03125 361.832031 186.09375 359.265625 C 187.15625 356.699219 188.355469 354.203125 189.695312 351.769531 C 191.03125 349.339844 192.503906 346.988281 194.101562 344.722656 C 195.703125 342.453125 197.425781 340.28125 199.265625 338.207031 C 201.109375 336.128906 203.058594 334.164062 205.121094 332.304688 C 207.183594 330.445312 209.339844 328.707031 211.59375 327.089844 C 213.847656 325.46875 216.183594 323.980469 218.605469 322.625 C 221.023438 321.265625 223.511719 320.046875 226.066406 318.964844 C 228.625 317.882812 231.230469 316.945312 233.890625 316.15625 C 236.550781 315.367188 239.246094 314.726562 241.976562 314.234375 C 244.707031 313.742188 247.457031 313.40625 250.226562 313.222656 C 252.996094 313.039062 255.765625 313.007812 258.539062 313.132812 L 572.769531 327.28125 C 575.765625 327.417969 578.742188 327.71875 581.707031 328.1875 C 584.667969 328.652344 587.59375 329.285156 590.488281 330.078125 C 593.378906 330.871094 596.21875 331.820312 599.003906 332.929688 C 601.792969 334.039062 604.507812 335.300781 607.152344 336.710938 C 609.800781 338.121094 612.359375 339.675781 614.832031 341.371094 C 617.304688 343.070312 619.675781 344.898438 621.949219 346.859375 C 624.21875 348.820312 626.371094 350.898438 628.410156 353.097656 C 630.449219 355.300781 632.359375 357.605469 634.140625 360.019531 C 635.921875 362.433594 637.566406 364.9375 639.070312 367.53125 C 640.570312 370.128906 641.925781 372.800781 643.132812 375.546875 C 644.339844 378.292969 645.390625 381.097656 646.285156 383.960938 C 647.179688 386.824219 647.910156 389.730469 648.484375 392.675781 C 649.054688 395.621094 649.460938 398.585938 649.699219 401.578125 C 649.941406 404.570312 650.015625 407.5625 649.925781 410.5625 C 649.832031 413.558594 649.574219 416.542969 649.152344 419.515625 C 648.726562 422.484375 648.140625 425.421875 647.390625 428.328125 Z M 647.390625 428.328125 " clip-rule="nonzero"/></clipPath><clipPath id="id13"><path d="M 490 402 L 650 402 L 650 485 L 490 485 Z M 490 402 " clip-rule="nonzero"/></clipPath><clipPath id="id14"><path d="M 647.390625 428.328125 L 574.988281 708.335938 C 574.988281 708.335938 417.863281 775.121094 230.574219 697.507812 L 181.410156 400.058594 C 180.957031 397.320312 180.660156 394.566406 180.511719 391.792969 C 180.367188 389.023438 180.378906 386.25 180.539062 383.480469 C 180.703125 380.707031 181.019531 377.953125 181.488281 375.21875 C 181.957031 372.480469 182.578125 369.78125 183.347656 367.113281 C 184.117188 364.445312 185.03125 361.832031 186.09375 359.265625 C 187.15625 356.699219 188.355469 354.203125 189.695312 351.769531 C 191.03125 349.339844 192.503906 346.988281 194.101562 344.722656 C 195.703125 342.453125 197.425781 340.28125 199.265625 338.207031 C 201.109375 336.128906 203.058594 334.164062 205.121094 332.304688 C 207.183594 330.445312 209.339844 328.707031 211.59375 327.089844 C 213.847656 325.46875 216.183594 323.980469 218.605469 322.625 C 221.023438 321.265625 223.511719 320.046875 226.066406 318.964844 C 228.625 317.882812 231.230469 316.945312 233.890625 316.15625 C 236.550781 315.367188 239.246094 314.726562 241.976562 314.234375 C 244.707031 313.742188 247.457031 313.40625 250.226562 313.222656 C 252.996094 313.039062 255.765625 313.007812 258.539062 313.132812 L 572.769531 327.28125 C 575.765625 327.417969 578.742188 327.71875 581.707031 328.1875 C 584.667969 328.652344 587.59375 329.285156 590.488281 330.078125 C 593.378906 330.871094 596.21875 331.820312 599.003906 332.929688 C 601.792969 334.039062 604.507812 335.300781 607.152344 336.710938 C 609.800781 338.121094 612.359375 339.675781 614.832031 341.371094 C 617.304688 343.070312 619.675781 344.898438 621.949219 346.859375 C 624.21875 348.820312 626.371094 350.898438 628.410156 353.097656 C 630.449219 355.300781 632.359375 357.605469 634.140625 360.019531 C 635.921875 362.433594 637.566406 364.9375 639.070312 367.53125 C 640.570312 370.128906 641.925781 372.800781 643.132812 375.546875 C 644.339844 378.292969 645.390625 381.097656 646.285156 383.960938 C 647.179688 386.824219 647.910156 389.730469 648.484375 392.675781 C 649.054688 395.621094 649.460938 398.585938 649.699219 401.578125 C 649.941406 404.570312 650.015625 407.5625 649.925781 410.5625 C 649.832031 413.558594 649.574219 416.542969 649.152344 419.515625 C 648.726562 422.484375 648.140625 425.421875 647.390625 428.328125 Z M 647.390625 428.328125 " clip-rule="nonzero"/></clipPath><clipPath id="id15"><path d="M 180 370 L 335 370 L 335 480 L 180 480 Z M 180 370 " clip-rule="nonzero"/></clipPath><clipPath id="id16"><path d="M 647.390625 428.328125 L 574.988281 708.335938 C 574.988281 708.335938 417.863281 775.121094 230.574219 697.507812 L 181.410156 400.058594 C 180.957031 397.320312 180.660156 394.566406 180.511719 391.792969 C 180.367188 389.023438 180.378906 386.25 180.539062 383.480469 C 180.703125 380.707031 181.019531 377.953125 181.488281 375.21875 C 181.957031 372.480469 182.578125 369.78125 183.347656 367.113281 C 184.117188 364.445312 185.03125 361.832031 186.09375 359.265625 C 187.15625 356.699219 188.355469 354.203125 189.695312 351.769531 C 191.03125 349.339844 192.503906 346.988281 194.101562 344.722656 C 195.703125 342.453125 197.425781 340.28125 199.265625 338.207031 C 201.109375 336.128906 203.058594 334.164062 205.121094 332.304688 C 207.183594 330.445312 209.339844 328.707031 211.59375 327.089844 C 213.847656 325.46875 216.183594 323.980469 218.605469 322.625 C 221.023438 321.265625 223.511719 320.046875 226.066406 318.964844 C 228.625 317.882812 231.230469 316.945312 233.890625 316.15625 C 236.550781 315.367188 239.246094 314.726562 241.976562 314.234375 C 244.707031 313.742188 247.457031 313.40625 250.226562 313.222656 C 252.996094 313.039062 255.765625 313.007812 258.539062 313.132812 L 572.769531 327.28125 C 575.765625 327.417969 578.742188 327.71875 581.707031 328.1875 C 584.667969 328.652344 587.59375 329.285156 590.488281 330.078125 C 593.378906 330.871094 596.21875 331.820312 599.003906 332.929688 C 601.792969 334.039062 604.507812 335.300781 607.152344 336.710938 C 609.800781 338.121094 612.359375 339.675781 614.832031 341.371094 C 617.304688 343.070312 619.675781 344.898438 621.949219 346.859375 C 624.21875 348.820312 626.371094 350.898438 628.410156 353.097656 C 630.449219 355.300781 632.359375 357.605469 634.140625 360.019531 C 635.921875 362.433594 637.566406 364.9375 639.070312 367.53125 C 640.570312 370.128906 641.925781 372.800781 643.132812 375.546875 C 644.339844 378.292969 645.390625 381.097656 646.285156 383.960938 C 647.179688 386.824219 647.910156 389.730469 648.484375 392.675781 C 649.054688 395.621094 649.460938 398.585938 649.699219 401.578125 C 649.941406 404.570312 650.015625 407.5625 649.925781 410.5625 C 649.832031 413.558594 649.574219 416.542969 649.152344 419.515625 C 648.726562 422.484375 648.140625 425.421875 647.390625 428.328125 Z M 647.390625 428.328125 " clip-rule="nonzero"/></clipPath></defs><path fill="#1995af" d="M 185.648438 654.132812 C 142.855469 654.132812 102.421875 636.40625 74.730469 605.613281 C 51.941406 580.34375 40.578125 549.476562 43.554688 521.03125 C 46.585938 491.917969 65.5625 462.675781 94.304688 442.785156 C 129.484375 418.453125 174.140625 410.945312 216.769531 422.152344 C 217.628906 422.378906 218.460938 422.6875 219.257812 423.074219 C 220.058594 423.464844 220.8125 423.929688 221.519531 424.464844 C 222.226562 425.003906 222.875 425.605469 223.464844 426.269531 C 224.054688 426.9375 224.570312 427.652344 225.019531 428.421875 C 225.46875 429.1875 225.835938 429.992188 226.128906 430.832031 C 226.417969 431.671875 226.621094 432.535156 226.742188 433.414062 C 226.863281 434.296875 226.894531 435.179688 226.84375 436.066406 C 226.789062 436.953125 226.648438 437.828125 226.421875 438.6875 C 226.199219 439.546875 225.890625 440.375 225.5 441.175781 C 225.113281 441.976562 224.648438 442.730469 224.113281 443.4375 C 223.574219 444.144531 222.972656 444.792969 222.308594 445.382812 C 221.644531 445.972656 220.925781 446.492188 220.160156 446.941406 C 219.390625 447.386719 218.589844 447.757812 217.75 448.046875 C 216.910156 448.335938 216.046875 448.542969 215.167969 448.664062 C 214.289062 448.785156 213.402344 448.816406 212.515625 448.761719 C 211.628906 448.710938 210.757812 448.570312 209.898438 448.34375 C 174.898438 439.136719 138.378906 445.222656 109.695312 465.058594 C 87.339844 480.507812 72.671875 502.476562 70.417969 523.847656 C 68.269531 544.371094 77.382812 568.179688 94.773438 587.507812 C 117.324219 612.617188 150.503906 627.019531 185.648438 627.058594 C 186.539062 627.058594 187.417969 627.144531 188.289062 627.316406 C 189.160156 627.492188 190.007812 627.746094 190.828125 628.085938 C 191.648438 628.429688 192.429688 628.84375 193.167969 629.339844 C 193.90625 629.832031 194.589844 630.394531 195.21875 631.023438 C 195.84375 631.652344 196.40625 632.335938 196.898438 633.074219 C 197.394531 633.8125 197.8125 634.59375 198.152344 635.414062 C 198.492188 636.234375 198.746094 637.082031 198.921875 637.953125 C 199.09375 638.824219 199.179688 639.707031 199.179688 640.59375 C 199.179688 641.484375 199.09375 642.363281 198.921875 643.234375 C 198.746094 644.109375 198.492188 644.953125 198.152344 645.773438 C 197.8125 646.597656 197.394531 647.375 196.898438 648.117188 C 196.40625 648.855469 195.84375 649.539062 195.21875 650.167969 C 194.589844 650.796875 193.90625 651.355469 193.167969 651.851562 C 192.429688 652.34375 191.648438 652.761719 190.828125 653.101562 C 190.007812 653.441406 189.160156 653.699219 188.289062 653.871094 C 187.417969 654.046875 186.539062 654.132812 185.648438 654.132812 Z M 185.648438 654.132812 " fill-opacity="1" fill-rule="nonzero"/><path fill="#1995af" d="M 422.320312 206.222656 L 422.050781 206.222656 C 421.570312 206.1875 421.121094 206.0625 420.691406 205.847656 C 420.265625 205.632812 419.894531 205.34375 419.582031 204.980469 C 419.269531 204.621094 419.035156 204.210938 418.886719 203.757812 C 418.734375 203.300781 418.675781 202.835938 418.710938 202.359375 C 428.816406 63.734375 376.152344 33.375 375.628906 33.085938 C 375.207031 32.859375 374.84375 32.558594 374.542969 32.1875 C 374.242188 31.816406 374.023438 31.402344 373.886719 30.941406 C 373.746094 30.484375 373.703125 30.015625 373.753906 29.539062 C 373.800781 29.0625 373.9375 28.617188 374.167969 28.195312 C 374.390625 27.777344 374.6875 27.417969 375.058594 27.117188 C 375.425781 26.816406 375.835938 26.59375 376.289062 26.457031 C 376.742188 26.316406 377.207031 26.269531 377.679688 26.316406 C 378.152344 26.359375 378.597656 26.492188 379.019531 26.714844 C 381.367188 27.960938 436.410156 58.898438 425.929688 202.882812 C 425.894531 203.335938 425.777344 203.769531 425.578125 204.179688 C 425.382812 204.589844 425.113281 204.953125 424.78125 205.261719 C 424.445312 205.570312 424.066406 205.808594 423.640625 205.976562 C 423.214844 206.140625 422.777344 206.222656 422.320312 206.222656 Z M 422.320312 206.222656 " fill-opacity="1" fill-rule="nonzero"/><path fill="#59cfff" d="M 394.300781 26.894531 C 394.300781 27.539062 394.269531 28.183594 394.207031 28.828125 C 394.144531 29.472656 394.046875 30.109375 393.921875 30.742188 C 393.796875 31.378906 393.640625 32.003906 393.453125 32.621094 C 393.265625 33.238281 393.046875 33.847656 392.800781 34.445312 C 392.554688 35.042969 392.277344 35.625 391.972656 36.195312 C 391.667969 36.765625 391.335938 37.316406 390.976562 37.855469 C 390.617188 38.394531 390.234375 38.910156 389.824219 39.410156 C 389.414062 39.910156 388.980469 40.386719 388.527344 40.84375 C 388.070312 41.300781 387.589844 41.734375 387.089844 42.144531 C 386.59375 42.554688 386.074219 42.941406 385.539062 43.296875 C 385 43.65625 384.445312 43.988281 383.878906 44.292969 C 383.308594 44.597656 382.726562 44.875 382.128906 45.121094 C 381.53125 45.367188 380.925781 45.585938 380.304688 45.773438 C 379.6875 45.960938 379.0625 46.117188 378.429688 46.246094 C 377.796875 46.371094 377.15625 46.464844 376.515625 46.527344 C 375.871094 46.589844 375.226562 46.625 374.582031 46.625 C 373.9375 46.625 373.292969 46.589844 372.648438 46.527344 C 372.007812 46.464844 371.367188 46.371094 370.734375 46.246094 C 370.101562 46.117188 369.476562 45.960938 368.855469 45.773438 C 368.238281 45.585938 367.632812 45.367188 367.035156 45.121094 C 366.4375 44.875 365.855469 44.597656 365.285156 44.292969 C 364.714844 43.988281 364.164062 43.65625 363.625 43.296875 C 363.089844 42.941406 362.570312 42.554688 362.070312 42.144531 C 361.574219 41.734375 361.09375 41.300781 360.636719 40.84375 C 360.179688 40.386719 359.746094 39.910156 359.339844 39.410156 C 358.929688 38.910156 358.542969 38.394531 358.183594 37.855469 C 357.828125 37.316406 357.496094 36.765625 357.191406 36.195312 C 356.886719 35.625 356.609375 35.042969 356.363281 34.445312 C 356.117188 33.847656 355.898438 33.238281 355.710938 32.621094 C 355.523438 32.003906 355.367188 31.378906 355.242188 30.742188 C 355.113281 30.109375 355.019531 29.472656 354.957031 28.828125 C 354.894531 28.183594 354.863281 27.539062 354.863281 26.894531 C 354.863281 26.25 354.894531 25.605469 354.957031 24.960938 C 355.019531 24.316406 355.113281 23.679688 355.242188 23.046875 C 355.367188 22.414062 355.523438 21.785156 355.710938 21.167969 C 355.898438 20.550781 356.117188 19.941406 356.363281 19.34375 C 356.609375 18.746094 356.886719 18.164062 357.191406 17.59375 C 357.496094 17.023438 357.828125 16.472656 358.183594 15.933594 C 358.542969 15.398438 358.929688 14.878906 359.339844 14.378906 C 359.746094 13.878906 360.179688 13.402344 360.636719 12.945312 C 361.09375 12.488281 361.574219 12.054688 362.070312 11.644531 C 362.570312 11.234375 363.089844 10.851562 363.625 10.492188 C 364.164062 10.132812 364.714844 9.800781 365.285156 9.496094 C 365.855469 9.191406 366.4375 8.914062 367.035156 8.667969 C 367.632812 8.421875 368.238281 8.203125 368.855469 8.015625 C 369.476562 7.828125 370.101562 7.671875 370.734375 7.546875 C 371.367188 7.417969 372.007812 7.324219 372.648438 7.261719 C 373.292969 7.199219 373.9375 7.167969 374.582031 7.167969 C 375.226562 7.167969 375.871094 7.199219 376.515625 7.261719 C 377.15625 7.324219 377.796875 7.417969 378.429688 7.546875 C 379.0625 7.671875 379.6875 7.828125 380.304688 8.015625 C 380.925781 8.203125 381.53125 8.421875 382.128906 8.667969 C 382.726562 8.914062 383.308594 9.191406 383.878906 9.496094 C 384.445312 9.800781 385 10.132812 385.539062 10.492188 C 386.074219 10.851562 386.59375 11.234375 387.089844 11.644531 C 387.589844 12.054688 388.070312 12.488281 388.527344 12.945312 C 388.980469 13.402344 389.414062 13.878906 389.824219 14.378906 C 390.234375 14.878906 390.617188 15.398438 390.976562 15.933594 C 391.335938 16.472656 391.667969 17.023438 391.972656 17.59375 C 392.277344 18.164062 392.554688 18.746094 392.800781 19.34375 C 393.046875 19.941406 393.265625 20.550781 393.453125 21.167969 C 393.640625 21.785156 393.796875 22.414062 393.921875 23.046875 C 394.046875 23.679688 394.144531 24.316406 394.207031 24.960938 C 394.269531 25.605469 394.300781 26.25 394.300781 26.894531 Z M 394.300781 26.894531 " fill-opacity="1" fill-rule="nonzero"/><g clip-path="url(#id1)"><g clip-path="url(#id2)"><path fill="#1995af" d="M 427.457031 719.667969 C 429.035156 720.09375 430.589844 720.59375 432.121094 721.164062 C 433.652344 721.734375 435.148438 722.371094 436.617188 723.078125 C 438.085938 723.789062 439.519531 724.5625 440.910156 725.398438 C 442.304688 726.238281 443.652344 727.140625 444.957031 728.101562 C 446.261719 729.066406 447.511719 730.085938 448.714844 731.160156 C 449.917969 732.238281 451.0625 733.367188 452.148438 734.546875 C 453.238281 735.726562 454.265625 736.953125 455.230469 738.226562 C 456.195312 739.5 457.09375 740.8125 457.925781 742.164062 C 458.757812 743.515625 459.515625 744.902344 460.207031 746.320312 C 460.898438 747.742188 461.515625 749.1875 462.058594 750.660156 C 462.601562 752.132812 463.066406 753.625 463.457031 755.136719 C 463.847656 756.648438 464.15625 758.175781 464.390625 759.710938 C 464.621094 761.246094 464.777344 762.789062 464.851562 764.335938 C 464.925781 765.882812 464.917969 767.425781 464.832031 768.96875 C 464.746094 770.507812 464.582031 772.039062 464.335938 773.5625 C 464.09375 775.082031 463.769531 776.585938 463.367188 778.074219 C 462.964844 779.558594 462.488281 781.023438 461.933594 782.460938 C 461.382812 783.898438 460.753906 785.304688 460.050781 786.679688 C 459.351562 788.054688 458.578125 789.390625 457.738281 790.691406 C 456.894531 791.988281 455.988281 793.246094 455.011719 794.453125 C 454.039062 795.664062 453.003906 796.824219 451.90625 797.9375 C 450.808594 799.046875 449.65625 800.101562 448.445312 801.101562 C 447.234375 802.101562 445.972656 803.039062 444.664062 803.917969 C 443.351562 804.796875 441.996094 805.613281 440.597656 806.363281 C 439.199219 807.113281 437.761719 807.792969 436.289062 808.40625 C 434.816406 809.019531 433.3125 809.5625 431.777344 810.035156 C 430.242188 810.507812 428.683594 810.90625 427.105469 811.230469 C 425.523438 811.554688 423.929688 811.804688 422.320312 811.980469 C 420.707031 812.15625 419.089844 812.257812 417.464844 812.28125 C 415.835938 812.304688 414.210938 812.253906 412.585938 812.125 C 410.960938 811.996094 409.34375 811.792969 407.734375 811.515625 C 406.125 811.238281 404.535156 810.882812 402.957031 810.457031 C 401.378906 810.03125 399.824219 809.535156 398.292969 808.964844 C 396.765625 808.394531 395.265625 807.757812 393.796875 807.046875 C 392.328125 806.339844 390.894531 805.566406 389.503906 804.726562 C 388.109375 803.886719 386.761719 802.988281 385.457031 802.023438 C 384.15625 801.0625 382.902344 800.042969 381.699219 798.964844 C 380.496094 797.890625 379.351562 796.761719 378.265625 795.582031 C 377.175781 794.398438 376.148438 793.171875 375.183594 791.902344 C 374.21875 790.628906 373.320312 789.316406 372.488281 787.964844 C 371.65625 786.609375 370.898438 785.226562 370.207031 783.804688 C 369.515625 782.386719 368.898438 780.9375 368.355469 779.464844 C 367.8125 777.992188 367.347656 776.5 366.957031 774.988281 C 366.570312 773.476562 366.257812 771.953125 366.023438 770.417969 C 365.792969 768.878906 365.636719 767.339844 365.5625 765.792969 C 365.492188 764.246094 365.496094 762.703125 365.582031 761.160156 C 365.667969 759.617188 365.832031 758.085938 366.078125 756.566406 C 366.324219 755.042969 366.644531 753.539062 367.046875 752.054688 C 367.449219 750.566406 367.925781 749.105469 368.480469 747.667969 C 369.035156 746.230469 369.660156 744.824219 370.363281 743.449219 C 371.0625 742.074219 371.835938 740.734375 372.675781 739.4375 C 373.519531 738.136719 374.425781 736.882812 375.402344 735.671875 C 376.375 734.460938 377.410156 733.300781 378.507812 732.191406 C 379.605469 731.082031 380.757812 730.027344 381.96875 729.027344 C 383.179688 728.027344 384.441406 727.085938 385.75 726.207031 C 387.0625 725.328125 388.417969 724.515625 389.816406 723.765625 C 391.214844 723.015625 392.652344 722.332031 394.125 721.71875 C 395.597656 721.105469 397.101562 720.5625 398.636719 720.089844 C 400.171875 719.621094 401.730469 719.222656 403.308594 718.894531 C 404.890625 718.570312 406.484375 718.320312 408.09375 718.144531 C 409.707031 717.96875 411.324219 717.871094 412.949219 717.847656 C 414.578125 717.824219 416.203125 717.875 417.828125 718.003906 C 419.453125 718.132812 421.070312 718.335938 422.679688 718.613281 C 424.289062 718.890625 425.882812 719.242188 427.457031 719.667969 Z M 427.457031 719.667969 " fill-opacity="1" fill-rule="nonzero"/></g></g><g clip-path="url(#id3)"><g clip-path="url(#id4)"><path fill="#59cfff" d="M 484.691406 768.605469 C 484.691406 768.605469 418.421875 773.082031 353.671875 737.179688 L 358.183594 785.101562 C 358.183594 785.101562 385.605469 821.347656 387.914062 821.960938 C 390.222656 822.574219 462.226562 822.664062 462.226562 822.664062 Z M 484.691406 768.605469 " fill-opacity="1" fill-rule="nonzero"/></g></g><path fill="#1995af" d="M 621.570312 472.332031 C 620.683594 472.378906 619.800781 472.339844 618.921875 472.210938 C 618.039062 472.085938 617.179688 471.875 616.34375 471.578125 C 615.503906 471.28125 614.703125 470.90625 613.9375 470.453125 C 613.171875 469.996094 612.460938 469.472656 611.796875 468.878906 C 611.136719 468.285156 610.539062 467.632812 610.007812 466.917969 C 609.472656 466.207031 609.015625 465.449219 608.632812 464.648438 C 608.25 463.84375 607.945312 463.011719 607.726562 462.152344 C 607.507812 461.289062 607.371094 460.414062 607.324219 459.523438 C 607.277344 458.636719 607.316406 457.753906 607.441406 456.871094 C 607.566406 455.992188 607.777344 455.132812 608.074219 454.292969 C 608.367188 453.453125 608.742188 452.652344 609.195312 451.886719 C 609.648438 451.121094 610.171875 450.40625 610.765625 449.742188 C 611.359375 449.082031 612.011719 448.484375 612.722656 447.949219 C 613.433594 447.414062 614.191406 446.957031 614.992188 446.570312 C 615.792969 446.1875 616.625 445.882812 617.488281 445.664062 C 618.347656 445.441406 619.222656 445.304688 620.109375 445.257812 C 680.082031 438.6875 730.472656 396.902344 737.382812 348.078125 C 741.351562 319.902344 730.308594 287.878906 707.828125 262.410156 C 679.972656 230.839844 638.820312 213.117188 594.960938 213.820312 L 594.746094 213.820312 C 593.855469 213.828125 592.976562 213.746094 592.101562 213.578125 C 591.230469 213.414062 590.382812 213.164062 589.558594 212.828125 C 588.734375 212.492188 587.953125 212.082031 587.210938 211.59375 C 586.46875 211.105469 585.78125 210.550781 585.148438 209.925781 C 584.515625 209.300781 583.949219 208.621094 583.449219 207.886719 C 582.949219 207.152344 582.527344 206.375 582.183594 205.554688 C 581.835938 204.738281 581.574219 203.890625 581.394531 203.019531 C 581.214844 202.152344 581.121094 201.269531 581.113281 200.382812 C 581.105469 199.492188 581.1875 198.613281 581.355469 197.738281 C 581.519531 196.867188 581.773438 196.019531 582.105469 195.195312 C 582.441406 194.371094 582.851562 193.585938 583.339844 192.84375 C 583.828125 192.101562 584.382812 191.414062 585.007812 190.78125 C 585.628906 190.148438 586.308594 189.582031 587.042969 189.082031 C 587.78125 188.582031 588.558594 188.160156 589.375 187.8125 C 590.195312 187.46875 591.039062 187.203125 591.90625 187.023438 C 592.777344 186.84375 593.65625 186.753906 594.546875 186.746094 C 646.289062 185.914062 695.019531 206.980469 728.054688 244.503906 C 756.089844 276.273438 769.226562 315.40625 764.136719 351.867188 C 759.988281 381.289062 743.605469 409.625 717.988281 431.71875 C 692.367188 453.8125 658.449219 468.289062 623.050781 472.171875 C 622.5625 472.25 622.066406 472.304688 621.570312 472.332031 Z M 621.570312 472.332031 " fill-opacity="1" fill-rule="nonzero"/><path fill="#1995af" d="M 205.152344 607.652344 C 186.460938 613.753906 173.164062 627.507812 170.78125 643.484375 C 170.496094 645.621094 170.390625 647.765625 170.460938 649.921875 C 170.53125 652.078125 170.777344 654.214844 171.203125 656.328125 C 171.628906 658.441406 172.226562 660.507812 172.992188 662.523438 C 173.761719 664.539062 174.691406 666.476562 175.78125 668.335938 C 187.109375 687.886719 215.183594 693.246094 240.316406 694.328125 L 242.554688 674.1875 C 242.554688 674.1875 206.109375 668.664062 206.597656 647.273438 C 206.582031 644.859375 207.253906 642.65625 208.617188 640.667969 C 213.832031 633.789062 230.265625 635.25 249.265625 643.789062 L 257.257812 622.726562 C 253.988281 619.078125 250.257812 615.988281 246.070312 613.449219 C 229.183594 603.230469 211.140625 606.335938 205.152344 607.652344 Z M 205.152344 607.652344 " fill-opacity="1" fill-rule="nonzero"/><g clip-path="url(#id5)"><g clip-path="url(#id6)"><path fill="#59cfff" d="M 647.390625 428.328125 L 574.988281 708.335938 C 574.988281 708.335938 417.863281 775.121094 230.574219 697.507812 L 181.410156 400.058594 C 181.183594 398.691406 180.996094 397.320312 180.847656 395.941406 C 180.699219 394.5625 180.585938 393.179688 180.511719 391.792969 C 180.441406 390.410156 180.40625 389.023438 180.410156 387.636719 C 180.414062 386.25 180.457031 384.863281 180.539062 383.480469 C 180.621094 382.09375 180.742188 380.714844 180.898438 379.335938 C 181.058594 377.957031 181.253906 376.585938 181.488281 375.21875 C 181.722656 373.851562 181.996094 372.492188 182.304688 371.140625 C 182.617188 369.789062 182.964844 368.445312 183.347656 367.113281 C 183.730469 365.78125 184.152344 364.460938 184.613281 363.152344 C 185.070312 361.84375 185.5625 360.546875 186.09375 359.265625 C 186.625 357.984375 187.1875 356.71875 187.789062 355.46875 C 188.390625 354.21875 189.023438 352.984375 189.695312 351.769531 C 190.363281 350.554688 191.066406 349.359375 191.800781 348.183594 C 192.535156 347.007812 193.304688 345.855469 194.101562 344.722656 C 194.902344 343.589844 195.734375 342.480469 196.59375 341.390625 C 197.457031 340.304688 198.347656 339.242188 199.265625 338.207031 C 200.1875 337.167969 201.136719 336.160156 202.113281 335.175781 C 203.089844 334.1875 204.089844 333.234375 205.121094 332.304688 C 206.148438 331.375 207.203125 330.476562 208.285156 329.605469 C 209.363281 328.734375 210.46875 327.898438 211.59375 327.089844 C 212.71875 326.28125 213.867188 325.503906 215.039062 324.757812 C 216.207031 324.011719 217.394531 323.300781 218.605469 322.625 C 219.8125 321.945312 221.039062 321.300781 222.285156 320.691406 C 223.53125 320.078125 224.792969 319.503906 226.066406 318.964844 C 227.34375 318.425781 228.636719 317.917969 229.941406 317.453125 C 231.246094 316.984375 232.5625 316.550781 233.890625 316.15625 C 235.21875 315.761719 236.558594 315.402344 237.90625 315.082031 C 239.257812 314.761719 240.613281 314.480469 241.976562 314.234375 C 243.34375 313.988281 244.710938 313.78125 246.089844 313.613281 C 247.464844 313.445312 248.84375 313.3125 250.226562 313.222656 C 251.609375 313.128906 252.996094 313.078125 254.382812 313.0625 C 255.765625 313.046875 257.152344 313.070312 258.539062 313.132812 L 572.769531 327.28125 C 574.265625 327.351562 575.757812 327.460938 577.25 327.609375 C 578.742188 327.761719 580.226562 327.953125 581.707031 328.1875 C 583.1875 328.421875 584.660156 328.695312 586.121094 329.007812 C 587.585938 329.324219 589.042969 329.679688 590.488281 330.078125 C 591.933594 330.472656 593.363281 330.910156 594.785156 331.386719 C 596.207031 331.859375 597.613281 332.375 599.003906 332.929688 C 600.398438 333.484375 601.773438 334.078125 603.132812 334.707031 C 604.492188 335.335938 605.832031 336.003906 607.152344 336.710938 C 608.476562 337.417969 609.777344 338.15625 611.058594 338.933594 C 612.339844 339.710938 613.597656 340.523438 614.832031 341.371094 C 616.066406 342.21875 617.28125 343.101562 618.464844 344.015625 C 619.652344 344.929688 620.8125 345.878906 621.949219 346.859375 C 623.082031 347.835938 624.1875 348.847656 625.265625 349.890625 C 626.34375 350.929688 627.390625 352 628.410156 353.097656 C 629.429688 354.199219 630.414062 355.324219 631.371094 356.480469 C 632.328125 357.632812 633.25 358.8125 634.140625 360.019531 C 635.03125 361.226562 635.886719 362.453125 636.710938 363.707031 C 637.53125 364.960938 638.316406 366.234375 639.070312 367.53125 C 639.820312 368.828125 640.535156 370.144531 641.210938 371.484375 C 641.890625 372.820312 642.53125 374.175781 643.132812 375.546875 C 643.734375 376.917969 644.300781 378.304688 644.824219 379.710938 C 645.351562 381.113281 645.835938 382.53125 646.285156 383.960938 C 646.730469 385.390625 647.136719 386.835938 647.503906 388.289062 C 647.871094 389.742188 648.195312 391.203125 648.484375 392.675781 C 648.769531 394.144531 649.011719 395.625 649.214844 397.109375 C 649.417969 398.59375 649.582031 400.085938 649.699219 401.578125 C 649.820312 403.070312 649.902344 404.566406 649.9375 406.066406 C 649.976562 407.566406 649.972656 409.0625 649.925781 410.5625 C 649.878906 412.058594 649.792969 413.554688 649.664062 415.050781 C 649.535156 416.542969 649.363281 418.03125 649.152344 419.515625 C 648.941406 421 648.6875 422.476562 648.394531 423.945312 C 648.097656 425.414062 647.765625 426.875 647.390625 428.328125 Z M 647.390625 428.328125 " fill-opacity="1" fill-rule="nonzero"/></g></g><g clip-path="url(#id7)"><g clip-path="url(#id8)"><path fill="#1995af" d="M 606.253906 336.144531 C 606.253906 336.144531 601.871094 400.820312 448.121094 417.625 C 294.367188 434.425781 200.316406 351.21875 194.90625 323.277344 C 189.492188 295.335938 285.671875 281.867188 285.671875 281.867188 L 480.359375 271.507812 C 480.359375 271.507812 569.449219 270.171875 606.253906 336.144531 Z M 606.253906 336.144531 " fill-opacity="1" fill-rule="nonzero"/></g></g><g clip-path="url(#id9)"><g clip-path="url(#id10)"><path fill="#1995af" d="M 560.824219 741.601562 C 560.457031 741.601562 560.121094 741.5 559.816406 741.296875 C 495.261719 698.535156 474.136719 580.363281 483.714844 511.539062 C 488.371094 478.035156 499.664062 456.808594 515.488281 451.773438 C 567.519531 435.167969 649.320312 367.5 650.132812 366.8125 C 650.316406 366.660156 650.523438 366.546875 650.75 366.476562 C 650.980469 366.40625 651.214844 366.378906 651.453125 366.402344 C 651.691406 366.421875 651.917969 366.492188 652.128906 366.601562 C 652.339844 366.714844 652.523438 366.863281 652.675781 367.046875 C 652.832031 367.230469 652.941406 367.4375 653.011719 367.667969 C 653.085938 367.894531 653.109375 368.128906 653.085938 368.367188 C 653.0625 368.605469 652.996094 368.832031 652.886719 369.042969 C 652.773438 369.257812 652.625 369.4375 652.441406 369.59375 C 651.613281 370.277344 569.289062 438.398438 516.585938 455.203125 C 502.351562 459.75 491.671875 480.472656 487.289062 512.042969 C 482.144531 549.007812 486.078125 595.578125 497.824219 636.585938 C 511.335938 683.769531 534.070312 719.886719 561.816406 738.28125 C 562.15625 738.5 562.394531 738.796875 562.53125 739.171875 C 562.671875 739.550781 562.683594 739.929688 562.566406 740.3125 C 562.453125 740.699219 562.234375 741.011719 561.910156 741.25 C 561.589844 741.488281 561.226562 741.605469 560.824219 741.601562 Z M 560.824219 741.601562 " fill-opacity="1" fill-rule="nonzero"/></g></g><g clip-path="url(#id11)"><g clip-path="url(#id12)"><path fill="#1995af" d="M 248.507812 731.820312 C 248.183594 731.820312 247.882812 731.742188 247.601562 731.578125 C 247.320312 731.417969 247.097656 731.199219 246.9375 730.917969 C 246.820312 730.710938 246.746094 730.488281 246.714844 730.25 C 246.6875 730.015625 246.703125 729.78125 246.765625 729.550781 C 246.828125 729.320312 246.929688 729.113281 247.078125 728.921875 C 247.222656 728.734375 247.398438 728.582031 247.605469 728.460938 C 276.472656 711.820312 301.386719 677.199219 317.824219 630.992188 C 332.113281 590.792969 338.949219 544.570312 336.117188 507.332031 C 333.71875 475.546875 324.355469 454.210938 310.425781 448.796875 C 283.453125 438.273438 249.460938 413.273438 225.628906 394.15625 C 199.9375 373.492188 180.328125 355.027344 180.128906 354.84375 C 179.960938 354.675781 179.832031 354.480469 179.742188 354.261719 C 179.648438 354.039062 179.605469 353.8125 179.605469 353.574219 C 179.605469 353.335938 179.648438 353.105469 179.742188 352.882812 C 179.832031 352.664062 179.960938 352.46875 180.128906 352.300781 C 180.296875 352.128906 180.492188 351.996094 180.714844 351.90625 C 180.9375 351.8125 181.167969 351.765625 181.410156 351.765625 C 181.648438 351.765625 181.882812 351.8125 182.101562 351.90625 C 182.324219 351.996094 182.519531 352.128906 182.691406 352.300781 C 183.464844 353.023438 260.863281 425.671875 311.761719 445.492188 C 327.242188 451.519531 337.179688 473.414062 339.742188 507.132812 C 344.992188 576.425781 316.542969 693.046875 249.425781 731.691406 C 249.132812 731.816406 248.824219 731.859375 248.507812 731.820312 Z M 248.507812 731.820312 " fill-opacity="1" fill-rule="nonzero"/></g></g><g clip-path="url(#id13)"><g clip-path="url(#id14)"><path fill="#1995af" d="M 492.230469 484.695312 C 491.992188 484.71875 491.757812 484.695312 491.53125 484.625 C 491.300781 484.550781 491.09375 484.441406 490.910156 484.289062 C 490.722656 484.132812 490.574219 483.953125 490.464844 483.738281 C 490.351562 483.527344 490.285156 483.300781 490.261719 483.0625 C 490.238281 482.824219 490.261719 482.589844 490.332031 482.359375 C 490.402344 482.128906 490.515625 481.921875 490.667969 481.738281 C 490.820312 481.554688 491 481.402344 491.214844 481.292969 C 491.425781 481.179688 491.648438 481.109375 491.886719 481.085938 C 614.03125 456.703125 655.832031 403.472656 656.25 403.019531 C 656.394531 402.832031 656.570312 402.675781 656.777344 402.558594 C 656.984375 402.4375 657.207031 402.363281 657.445312 402.332031 C 657.683594 402.300781 657.917969 402.316406 658.148438 402.378906 C 658.378906 402.441406 658.589844 402.542969 658.78125 402.691406 C 658.96875 402.835938 659.125 403.011719 659.246094 403.21875 C 659.363281 403.425781 659.441406 403.648438 659.472656 403.886719 C 659.503906 404.125 659.488281 404.359375 659.425781 404.589844 C 659.367188 404.820312 659.261719 405.03125 659.117188 405.222656 C 658.703125 405.765625 616.230469 459.949219 492.59375 484.644531 C 492.476562 484.679688 492.355469 484.695312 492.230469 484.695312 Z M 492.230469 484.695312 " fill-opacity="1" fill-rule="nonzero"/></g></g><g clip-path="url(#id15)"><g clip-path="url(#id16)"><path fill="#1995af" d="M 333.015625 479.714844 L 332.726562 479.714844 C 331.734375 479.550781 232.25 463.308594 142.421875 373.363281 C 142.253906 373.195312 142.125 373 142.035156 372.78125 C 141.941406 372.558594 141.898438 372.332031 141.898438 372.09375 C 141.898438 371.851562 141.941406 371.625 142.035156 371.402344 C 142.125 371.183594 142.253906 370.988281 142.421875 370.820312 C 142.589844 370.648438 142.785156 370.515625 143.007812 370.425781 C 143.230469 370.332031 143.460938 370.285156 143.703125 370.285156 C 143.941406 370.285156 144.175781 370.332031 144.394531 370.425781 C 144.617188 370.515625 144.8125 370.648438 144.984375 370.820312 C 233.984375 459.933594 332.292969 475.996094 333.285156 476.140625 C 333.519531 476.179688 333.738281 476.261719 333.941406 476.386719 C 334.144531 476.507812 334.316406 476.667969 334.457031 476.859375 C 334.597656 477.054688 334.695312 477.265625 334.753906 477.496094 C 334.808594 477.730469 334.816406 477.964844 334.78125 478.199219 C 334.746094 478.410156 334.679688 478.609375 334.574219 478.792969 C 334.46875 478.980469 334.335938 479.140625 334.175781 479.28125 C 334.011719 479.417969 333.832031 479.527344 333.632812 479.601562 C 333.433594 479.675781 333.226562 479.714844 333.015625 479.714844 Z M 333.015625 479.714844 " fill-opacity="1" fill-rule="nonzero"/></g></g><path fill="#59cfff" d="M 566.113281 341.613281 C 567.535156 341.363281 568.941406 341.035156 570.328125 340.636719 C 571.71875 340.234375 573.082031 339.765625 574.421875 339.222656 C 575.761719 338.679688 577.070312 338.070312 578.347656 337.390625 C 579.621094 336.714844 580.859375 335.972656 582.058594 335.164062 C 583.257812 334.355469 584.410156 333.488281 585.519531 332.558594 C 586.628906 331.632812 587.683594 330.648438 588.691406 329.613281 C 589.695312 328.574219 590.644531 327.484375 591.539062 326.347656 C 592.429688 325.210938 593.261719 324.03125 594.03125 322.808594 C 594.800781 321.582031 595.503906 320.324219 596.144531 319.027344 C 596.78125 317.730469 597.351562 316.402344 597.851562 315.046875 C 598.351562 313.6875 598.78125 312.308594 599.136719 310.910156 C 599.492188 309.507812 599.773438 308.089844 599.984375 306.660156 C 600.191406 305.230469 600.324219 303.792969 600.382812 302.347656 C 600.445312 300.902344 600.425781 299.460938 600.335938 298.015625 C 600.246094 296.574219 600.078125 295.140625 599.835938 293.714844 C 599.597656 292.289062 599.28125 290.878906 598.894531 289.484375 C 581.71875 228.117188 533.835938 124.382812 406.695312 127.648438 C 279.554688 130.917969 236.402344 231.78125 221.839844 291.109375 C 221.476562 292.609375 221.183594 294.125 220.964844 295.652344 C 220.75 297.179688 220.609375 298.71875 220.542969 300.257812 C 220.476562 301.800781 220.484375 303.34375 220.570312 304.886719 C 220.65625 306.425781 220.816406 307.960938 221.050781 309.484375 C 221.289062 311.011719 221.597656 312.523438 221.984375 314.015625 C 222.367188 315.511719 222.824219 316.984375 223.351562 318.433594 C 223.882812 319.886719 224.480469 321.304688 225.148438 322.699219 C 225.820312 324.089844 226.554688 325.445312 227.355469 326.761719 C 228.15625 328.082031 229.023438 329.359375 229.949219 330.59375 C 230.875 331.828125 231.863281 333.011719 232.90625 334.148438 C 233.949219 335.285156 235.046875 336.367188 236.195312 337.398438 C 237.347656 338.425781 238.546875 339.398438 239.789062 340.308594 C 241.035156 341.21875 242.324219 342.066406 243.652344 342.851562 C 244.980469 343.636719 246.347656 344.355469 247.746094 345.003906 C 249.144531 345.65625 250.574219 346.234375 252.027344 346.746094 C 253.484375 347.257812 254.964844 347.695312 256.464844 348.058594 C 305.878906 360.027344 402.816406 370.765625 566.113281 341.613281 Z M 566.113281 341.613281 " fill-opacity="1" fill-rule="nonzero"/><path fill="#ffffff" d="M 285.113281 297.824219 C 285.324219 299.558594 285.671875 301.265625 286.152344 302.945312 C 286.632812 304.628906 287.242188 306.257812 287.980469 307.84375 C 288.714844 309.429688 289.570312 310.945312 290.546875 312.394531 C 291.519531 313.847656 292.601562 315.210938 293.792969 316.492188 C 294.980469 317.773438 296.261719 318.953125 297.636719 320.03125 C 299.007812 321.109375 300.460938 322.074219 301.984375 322.925781 C 303.511719 323.777344 305.09375 324.507812 306.730469 325.109375 C 308.371094 325.714844 310.046875 326.183594 311.761719 326.523438 C 339.253906 332.046875 367.019531 335.054688 395.058594 335.550781 C 428.53125 336.121094 461.679688 333.109375 494.503906 326.523438 C 496.210938 326.179688 497.882812 325.703125 499.515625 325.097656 C 501.148438 324.492188 502.722656 323.761719 504.242188 322.90625 C 505.761719 322.054688 507.203125 321.085938 508.570312 320.007812 C 509.9375 318.925781 511.210938 317.746094 512.390625 316.464844 C 513.574219 315.183594 514.648438 313.820312 515.613281 312.371094 C 516.582031 310.921875 517.429688 309.40625 518.160156 307.824219 C 518.890625 306.242188 519.492188 304.613281 519.96875 302.9375 C 520.441406 301.257812 520.78125 299.554688 520.988281 297.824219 C 523.394531 278.234375 525.800781 258.652344 528.207031 239.074219 C 528.28125 238.445312 528.34375 237.820312 528.382812 237.191406 C 528.425781 236.5625 528.445312 235.933594 528.453125 235.304688 C 528.457031 234.675781 528.445312 234.042969 528.414062 233.414062 C 528.386719 232.785156 528.335938 232.15625 528.273438 231.53125 C 528.207031 230.90625 528.121094 230.28125 528.023438 229.660156 C 527.921875 229.035156 527.800781 228.417969 527.667969 227.804688 C 527.53125 227.1875 527.378906 226.578125 527.207031 225.972656 C 527.035156 225.363281 526.847656 224.761719 526.644531 224.167969 C 526.441406 223.570312 526.21875 222.984375 525.980469 222.398438 C 525.742188 221.816406 525.488281 221.238281 525.21875 220.671875 C 524.949219 220.101562 524.660156 219.542969 524.359375 218.988281 C 524.058594 218.4375 523.738281 217.890625 523.40625 217.359375 C 523.074219 216.824219 522.726562 216.296875 522.363281 215.78125 C 522 215.269531 521.625 214.761719 521.234375 214.269531 C 520.839844 213.777344 520.4375 213.292969 520.019531 212.824219 C 519.597656 212.351562 519.167969 211.894531 518.722656 211.449219 C 518.28125 211 517.824219 210.566406 517.355469 210.148438 C 516.886719 209.726562 516.40625 209.320312 515.914062 208.925781 C 515.421875 208.535156 514.917969 208.15625 514.40625 207.789062 C 513.890625 207.425781 513.367188 207.074219 512.835938 206.738281 C 512.300781 206.40625 511.757812 206.085938 511.207031 205.78125 C 510.65625 205.476562 510.097656 205.1875 509.53125 204.914062 C 508.960938 204.640625 508.386719 204.386719 507.804688 204.144531 C 507.222656 203.90625 506.636719 203.679688 506.039062 203.472656 C 505.445312 203.265625 504.84375 203.078125 504.238281 202.90625 C 503.632812 202.730469 503.023438 202.574219 502.410156 202.4375 C 501.796875 202.300781 501.179688 202.179688 500.558594 202.074219 C 499.9375 201.972656 499.3125 201.886719 498.6875 201.816406 C 498.0625 201.75 497.433594 201.699219 496.804688 201.667969 C 496.175781 201.632812 495.546875 201.617188 494.917969 201.621094 C 494.289062 201.625 493.65625 201.644531 493.03125 201.683594 C 492.402344 201.722656 491.773438 201.777344 491.148438 201.851562 C 459.554688 205.535156 427.855469 207.226562 396.050781 206.925781 C 368.941406 206.679688 341.921875 204.988281 314.988281 201.851562 C 314.363281 201.777344 313.734375 201.722656 313.105469 201.679688 C 312.476562 201.640625 311.84375 201.621094 311.214844 201.617188 C 310.582031 201.613281 309.953125 201.625 309.324219 201.660156 C 308.691406 201.691406 308.0625 201.742188 307.4375 201.808594 C 306.808594 201.875 306.183594 201.960938 305.5625 202.066406 C 304.941406 202.167969 304.320312 202.289062 303.703125 202.425781 C 303.089844 202.566406 302.476562 202.722656 301.871094 202.894531 C 301.265625 203.066406 300.664062 203.257812 300.066406 203.464844 C 299.472656 203.671875 298.882812 203.894531 298.296875 204.136719 C 297.714844 204.375 297.136719 204.632812 296.570312 204.90625 C 296 205.179688 295.441406 205.46875 294.886719 205.773438 C 294.335938 206.078125 293.792969 206.398438 293.257812 206.734375 C 292.722656 207.070312 292.199219 207.421875 291.683594 207.785156 C 291.171875 208.152344 290.667969 208.53125 290.175781 208.925781 C 289.679688 209.320312 289.199219 209.730469 288.730469 210.148438 C 288.261719 210.570312 287.804688 211.007812 287.359375 211.453125 C 286.914062 211.902344 286.480469 212.359375 286.0625 212.832031 C 285.644531 213.304688 285.238281 213.789062 284.847656 214.28125 C 284.453125 214.777344 284.078125 215.285156 283.714844 215.800781 C 283.351562 216.316406 283.003906 216.84375 282.671875 217.378906 C 282.335938 217.914062 282.019531 218.460938 281.71875 219.015625 C 281.414062 219.570312 281.128906 220.128906 280.859375 220.699219 C 280.585938 221.269531 280.332031 221.847656 280.097656 222.433594 C 279.859375 223.019531 279.636719 223.609375 279.433594 224.207031 C 279.230469 224.804688 279.042969 225.40625 278.871094 226.015625 C 278.703125 226.621094 278.550781 227.234375 278.414062 227.851562 C 278.28125 228.46875 278.160156 229.089844 278.0625 229.710938 C 277.960938 230.335938 277.878906 230.960938 277.816406 231.589844 C 277.75 232.214844 277.703125 232.84375 277.675781 233.476562 C 277.644531 234.105469 277.632812 234.738281 277.640625 235.367188 C 277.648438 236 277.671875 236.628906 277.714844 237.261719 C 277.757812 237.890625 277.816406 238.519531 277.894531 239.144531 C 280.300781 258.734375 282.707031 278.296875 285.113281 297.824219 Z M 285.113281 297.824219 " fill-opacity="1" fill-rule="nonzero"/><path fill="#fed41e" d="M 181.191406 213.277344 L 198.910156 190.335938 L 199.9375 220.625 L 220.488281 228.65625 L 199 236.21875 L 197.628906 264.019531 L 182.457031 241.597656 L 162.195312 246.039062 L 172.046875 228.765625 L 160.644531 213.117188 Z M 181.191406 213.277344 " fill-opacity="1" fill-rule="nonzero"/><path fill="#fed41e" d="M 574.484375 109.4375 L 591.480469 85.429688 L 593.824219 116.078125 L 614.988281 123.355469 L 593.515625 131.925781 L 593.300781 160.175781 L 576.972656 138.082031 L 556.621094 143.445312 L 565.878906 125.519531 L 553.664062 110.140625 Z M 574.484375 109.4375 " fill-opacity="1" fill-rule="nonzero"/><path fill="#fed41e" d="M 498.960938 21.660156 L 492.609375 0 L 483.28125 21.660156 L 466.105469 21.660156 L 479.546875 33.230469 L 472.65625 53.769531 L 490.03125 41.820312 L 503.433594 50.792969 L 501.199219 35.488281 L 513.898438 27.382812 Z M 498.960938 21.660156 " fill-opacity="1" fill-rule="nonzero"/><path fill="#fed41e" d="M 275.964844 68.96875 L 251.464844 40.125 L 251.953125 79.671875 L 225.648438 91.40625 L 254.136719 99.960938 L 257.582031 136.117188 L 276.019531 105.972656 L 302.6875 110.539062 L 288.8125 88.609375 L 302.722656 67.542969 Z M 275.964844 68.96875 " fill-opacity="1" fill-rule="nonzero"/><path fill="#1995af" d="M 412.300781 642.253906 L 408.335938 642.128906 C 407.3125 642.097656 406.292969 642.015625 405.277344 641.882812 C 404.261719 641.753906 403.253906 641.570312 402.257812 641.339844 C 401.257812 641.109375 400.273438 640.828125 399.304688 640.5 C 398.335938 640.171875 397.382812 639.796875 396.449219 639.375 C 395.515625 638.957031 394.605469 638.488281 393.71875 637.976562 C 392.832031 637.46875 391.96875 636.914062 391.136719 636.320312 C 390.304688 635.722656 389.5 635.089844 388.730469 634.414062 C 387.960938 633.738281 387.222656 633.027344 386.523438 632.28125 C 385.820312 631.535156 385.160156 630.757812 384.535156 629.945312 C 383.910156 629.132812 383.324219 628.292969 382.785156 627.421875 C 382.242188 626.554688 381.742188 625.660156 381.289062 624.742188 C 380.835938 623.824219 380.425781 622.886719 380.066406 621.925781 C 379.703125 620.96875 379.386719 619.996094 379.121094 619.007812 C 378.855469 618.015625 378.636719 617.015625 378.46875 616.007812 C 378.300781 614.996094 378.183594 613.980469 378.113281 612.957031 C 378.046875 611.933594 378.027344 610.914062 378.058594 609.886719 L 381.757812 491.464844 C 381.789062 490.441406 381.871094 489.421875 382.003906 488.40625 C 382.136719 487.390625 382.320312 486.382812 382.550781 485.386719 C 382.78125 484.386719 383.058594 483.402344 383.386719 482.433594 C 383.714844 481.460938 384.089844 480.507812 384.511719 479.574219 C 384.933594 478.640625 385.398438 477.730469 385.910156 476.84375 C 386.421875 475.953125 386.972656 475.09375 387.570312 474.261719 C 388.164062 473.425781 388.796875 472.625 389.472656 471.851562 C 390.144531 471.082031 390.855469 470.34375 391.601562 469.644531 C 392.347656 468.941406 393.128906 468.28125 393.941406 467.65625 C 394.75 467.03125 395.589844 466.445312 396.460938 465.902344 C 397.328125 465.363281 398.222656 464.863281 399.140625 464.410156 C 400.058594 463.953125 400.996094 463.546875 401.953125 463.183594 C 402.910156 462.820312 403.882812 462.507812 404.871094 462.242188 C 405.863281 461.972656 406.859375 461.757812 407.871094 461.589844 C 408.882812 461.417969 409.898438 461.300781 410.917969 461.234375 C 411.941406 461.164062 412.964844 461.144531 413.988281 461.175781 L 417.953125 461.300781 C 418.976562 461.332031 419.996094 461.414062 421.011719 461.546875 C 422.027344 461.679688 423.035156 461.863281 424.03125 462.09375 C 425.03125 462.324219 426.011719 462.605469 426.984375 462.933594 C 427.953125 463.257812 428.90625 463.632812 429.839844 464.054688 C 430.773438 464.476562 431.683594 464.941406 432.570312 465.453125 C 433.457031 465.964844 434.316406 466.519531 435.152344 467.113281 C 435.984375 467.710938 436.785156 468.34375 437.558594 469.019531 C 438.328125 469.691406 439.0625 470.402344 439.765625 471.148438 C 440.464844 471.898438 441.128906 472.675781 441.753906 473.488281 C 442.378906 474.300781 442.960938 475.140625 443.503906 476.007812 C 444.046875 476.878906 444.542969 477.773438 445 478.691406 C 445.453125 479.609375 445.859375 480.546875 446.222656 481.503906 C 446.585938 482.464844 446.898438 483.4375 447.164062 484.425781 C 447.433594 485.414062 447.648438 486.414062 447.816406 487.425781 C 447.988281 488.4375 448.105469 489.453125 448.171875 490.476562 C 448.242188 491.496094 448.261719 492.519531 448.226562 493.542969 L 444.527344 611.964844 C 444.496094 612.992188 444.414062 614.011719 444.28125 615.027344 C 444.152344 616.042969 443.96875 617.050781 443.738281 618.046875 C 443.507812 619.046875 443.226562 620.03125 442.898438 621 C 442.570312 621.972656 442.199219 622.921875 441.777344 623.855469 C 441.355469 624.789062 440.890625 625.703125 440.378906 626.589844 C 439.867188 627.476562 439.316406 628.339844 438.71875 629.171875 C 438.125 630.003906 437.488281 630.808594 436.816406 631.578125 C 436.140625 632.351562 435.429688 633.085938 434.683594 633.789062 C 433.9375 634.488281 433.160156 635.152344 432.347656 635.777344 C 431.535156 636.402344 430.695312 636.984375 429.828125 637.527344 C 428.960938 638.070312 428.066406 638.570312 427.148438 639.023438 C 426.230469 639.476562 425.292969 639.886719 424.335938 640.25 C 423.378906 640.609375 422.402344 640.925781 421.414062 641.191406 C 420.425781 641.457031 419.425781 641.675781 418.417969 641.84375 C 417.40625 642.011719 416.390625 642.132812 415.371094 642.199219 C 414.347656 642.269531 413.324219 642.285156 412.300781 642.253906 Z M 412.300781 642.253906 " fill-opacity="1" fill-rule="nonzero"/><path fill="#fed41e" d="M 429.085938 494.011719 C 429.085938 494.5625 429.058594 495.117188 429.003906 495.667969 C 428.949219 496.21875 428.867188 496.765625 428.761719 497.308594 C 428.652344 497.847656 428.519531 498.386719 428.359375 498.914062 C 428.199219 499.445312 428.011719 499.964844 427.800781 500.476562 C 427.589844 500.988281 427.351562 501.488281 427.089844 501.976562 C 426.832031 502.460938 426.546875 502.9375 426.238281 503.398438 C 425.933594 503.855469 425.601562 504.300781 425.253906 504.730469 C 424.902344 505.15625 424.53125 505.566406 424.140625 505.957031 C 423.75 506.347656 423.339844 506.71875 422.910156 507.070312 C 422.484375 507.421875 422.039062 507.75 421.582031 508.058594 C 421.121094 508.367188 420.648438 508.648438 420.160156 508.910156 C 419.671875 509.171875 419.171875 509.40625 418.660156 509.621094 C 418.148438 509.832031 417.628906 510.015625 417.101562 510.179688 C 416.570312 510.339844 416.035156 510.472656 415.492188 510.582031 C 414.949219 510.6875 414.402344 510.769531 413.855469 510.824219 C 413.304688 510.878906 412.75 510.90625 412.199219 510.90625 C 411.644531 510.90625 411.09375 510.878906 410.542969 510.824219 C 409.992188 510.769531 409.445312 510.6875 408.902344 510.582031 C 408.363281 510.472656 407.824219 510.339844 407.296875 510.179688 C 406.765625 510.015625 406.246094 509.832031 405.734375 509.621094 C 405.226562 509.40625 404.726562 509.171875 404.238281 508.910156 C 403.75 508.648438 403.277344 508.367188 402.816406 508.058594 C 402.355469 507.75 401.914062 507.421875 401.484375 507.070312 C 401.058594 506.71875 400.648438 506.347656 400.257812 505.957031 C 399.867188 505.566406 399.496094 505.15625 399.144531 504.730469 C 398.792969 504.300781 398.464844 503.855469 398.15625 503.398438 C 397.851562 502.9375 397.566406 502.460938 397.304688 501.976562 C 397.042969 501.488281 396.808594 500.988281 396.597656 500.476562 C 396.386719 499.964844 396.199219 499.445312 396.039062 498.914062 C 395.878906 498.386719 395.742188 497.847656 395.636719 497.308594 C 395.527344 496.765625 395.445312 496.21875 395.394531 495.667969 C 395.339844 495.117188 395.3125 494.5625 395.3125 494.011719 C 395.3125 493.457031 395.339844 492.90625 395.394531 492.355469 C 395.445312 491.804688 395.527344 491.257812 395.636719 490.714844 C 395.742188 490.171875 395.878906 489.636719 396.039062 489.105469 C 396.199219 488.578125 396.386719 488.054688 396.597656 487.546875 C 396.808594 487.035156 397.042969 486.535156 397.304688 486.046875 C 397.566406 485.558594 397.851562 485.085938 398.15625 484.625 C 398.464844 484.164062 398.792969 483.71875 399.144531 483.292969 C 399.496094 482.863281 399.867188 482.457031 400.257812 482.0625 C 400.648438 481.671875 401.058594 481.300781 401.484375 480.949219 C 401.914062 480.601562 402.355469 480.269531 402.816406 479.964844 C 403.277344 479.65625 403.75 479.371094 404.238281 479.109375 C 404.726562 478.851562 405.226562 478.613281 405.734375 478.402344 C 406.246094 478.191406 406.765625 478.003906 407.296875 477.84375 C 407.824219 477.683594 408.363281 477.546875 408.902344 477.441406 C 409.445312 477.332031 409.992188 477.25 410.542969 477.199219 C 411.09375 477.144531 411.644531 477.117188 412.199219 477.117188 C 412.75 477.117188 413.304688 477.144531 413.855469 477.199219 C 414.402344 477.25 414.949219 477.332031 415.492188 477.441406 C 416.035156 477.546875 416.570312 477.683594 417.101562 477.84375 C 417.628906 478.003906 418.148438 478.191406 418.660156 478.402344 C 419.171875 478.613281 419.671875 478.851562 420.160156 479.109375 C 420.648438 479.371094 421.121094 479.65625 421.582031 479.964844 C 422.039062 480.269531 422.484375 480.601562 422.910156 480.949219 C 423.339844 481.300781 423.75 481.671875 424.140625 482.0625 C 424.53125 482.457031 424.902344 482.863281 425.253906 483.292969 C 425.601562 483.71875 425.933594 484.164062 426.238281 484.625 C 426.546875 485.085938 426.832031 485.558594 427.089844 486.046875 C 427.351562 486.535156 427.589844 487.035156 427.800781 487.546875 C 428.011719 488.054688 428.199219 488.578125 428.359375 489.105469 C 428.519531 489.636719 428.652344 490.171875 428.761719 490.714844 C 428.867188 491.257812 428.949219 491.804688 429.003906 492.355469 C 429.058594 492.90625 429.085938 493.457031 429.085938 494.011719 Z M 429.085938 494.011719 " fill-opacity="1" fill-rule="nonzero"/><path fill="#fed41e" d="M 427.390625 547.871094 C 427.390625 548.425781 427.363281 548.976562 427.308594 549.527344 C 427.253906 550.078125 427.171875 550.625 427.066406 551.167969 C 426.957031 551.710938 426.824219 552.246094 426.664062 552.777344 C 426.5 553.304688 426.316406 553.824219 426.105469 554.335938 C 425.890625 554.847656 425.65625 555.347656 425.394531 555.835938 C 425.136719 556.324219 424.851562 556.796875 424.542969 557.257812 C 424.238281 557.71875 423.90625 558.164062 423.554688 558.589844 C 423.207031 559.019531 422.835938 559.425781 422.445312 559.816406 C 422.050781 560.210938 421.644531 560.582031 421.214844 560.933594 C 420.789062 561.28125 420.34375 561.613281 419.882812 561.917969 C 419.425781 562.226562 418.949219 562.511719 418.464844 562.773438 C 417.976562 563.03125 417.476562 563.269531 416.964844 563.480469 C 416.453125 563.691406 415.933594 563.878906 415.40625 564.039062 C 414.875 564.199219 414.339844 564.335938 413.796875 564.441406 C 413.253906 564.550781 412.707031 564.632812 412.15625 564.683594 C 411.609375 564.738281 411.054688 564.765625 410.503906 564.765625 C 409.949219 564.765625 409.398438 564.738281 408.847656 564.683594 C 408.296875 564.632812 407.75 564.550781 407.207031 564.441406 C 406.664062 564.335938 406.128906 564.199219 405.601562 564.039062 C 405.070312 563.878906 404.550781 563.691406 404.039062 563.480469 C 403.53125 563.269531 403.03125 563.03125 402.542969 562.773438 C 402.054688 562.511719 401.582031 562.226562 401.121094 561.917969 C 400.660156 561.613281 400.21875 561.28125 399.789062 560.933594 C 399.363281 560.582031 398.953125 560.210938 398.5625 559.816406 C 398.171875 559.425781 397.800781 559.019531 397.449219 558.589844 C 397.097656 558.164062 396.769531 557.71875 396.460938 557.257812 C 396.15625 556.796875 395.871094 556.324219 395.609375 555.835938 C 395.347656 555.347656 395.113281 554.847656 394.902344 554.335938 C 394.6875 553.824219 394.503906 553.304688 394.34375 552.777344 C 394.183594 552.246094 394.046875 551.710938 393.941406 551.167969 C 393.832031 550.625 393.75 550.078125 393.695312 549.527344 C 393.644531 548.976562 393.617188 548.425781 393.617188 547.871094 C 393.617188 547.320312 393.644531 546.765625 393.695312 546.214844 C 393.75 545.664062 393.832031 545.117188 393.941406 544.574219 C 394.046875 544.03125 394.183594 543.496094 394.34375 542.96875 C 394.503906 542.4375 394.6875 541.917969 394.902344 541.40625 C 395.113281 540.894531 395.347656 540.394531 395.609375 539.90625 C 395.871094 539.417969 396.15625 538.945312 396.460938 538.484375 C 396.769531 538.027344 397.097656 537.582031 397.449219 537.152344 C 397.800781 536.726562 398.171875 536.316406 398.5625 535.925781 C 398.953125 535.535156 399.363281 535.164062 399.789062 534.8125 C 400.21875 534.460938 400.660156 534.132812 401.121094 533.824219 C 401.582031 533.515625 402.054688 533.234375 402.542969 532.972656 C 403.03125 532.710938 403.53125 532.476562 404.039062 532.261719 C 404.550781 532.050781 405.070312 531.867188 405.601562 531.703125 C 406.128906 531.542969 406.664062 531.410156 407.207031 531.300781 C 407.75 531.195312 408.296875 531.113281 408.847656 531.058594 C 409.398438 531.003906 409.949219 530.976562 410.503906 530.976562 C 411.054688 530.976562 411.609375 531.003906 412.15625 531.058594 C 412.707031 531.113281 413.253906 531.195312 413.796875 531.300781 C 414.339844 531.410156 414.875 531.542969 415.40625 531.703125 C 415.933594 531.867188 416.453125 532.050781 416.964844 532.261719 C 417.476562 532.476562 417.976562 532.710938 418.464844 532.972656 C 418.949219 533.234375 419.425781 533.515625 419.882812 533.824219 C 420.34375 534.132812 420.789062 534.460938 421.214844 534.8125 C 421.644531 535.164062 422.050781 535.535156 422.445312 535.925781 C 422.835938 536.316406 423.207031 536.726562 423.554688 537.152344 C 423.90625 537.582031 424.234375 538.027344 424.542969 538.484375 C 424.851562 538.945312 425.136719 539.417969 425.394531 539.90625 C 425.65625 540.394531 425.890625 540.894531 426.105469 541.40625 C 426.316406 541.917969 426.5 542.4375 426.664062 542.96875 C 426.824219 543.496094 426.957031 544.03125 427.066406 544.574219 C 427.171875 545.117188 427.253906 545.664062 427.308594 546.214844 C 427.363281 546.765625 427.390625 547.320312 427.390625 547.871094 Z M 427.390625 547.871094 " fill-opacity="1" fill-rule="nonzero"/><path fill="#fed41e" d="M 425.710938 601.734375 C 425.710938 602.285156 425.683594 602.839844 425.628906 603.390625 C 425.578125 603.941406 425.496094 604.488281 425.386719 605.027344 C 425.28125 605.570312 425.144531 606.109375 424.984375 606.636719 C 424.824219 607.167969 424.636719 607.6875 424.425781 608.199219 C 424.214844 608.710938 423.976562 609.210938 423.71875 609.695312 C 423.457031 610.183594 423.171875 610.660156 422.867188 611.121094 C 422.558594 611.578125 422.230469 612.023438 421.878906 612.449219 C 421.527344 612.878906 421.15625 613.289062 420.765625 613.679688 C 420.375 614.070312 419.964844 614.441406 419.539062 614.792969 C 419.109375 615.144531 418.667969 615.472656 418.207031 615.78125 C 417.746094 616.089844 417.273438 616.371094 416.785156 616.632812 C 416.296875 616.894531 415.796875 617.128906 415.289062 617.34375 C 414.777344 617.554688 414.257812 617.738281 413.726562 617.902344 C 413.199219 618.0625 412.660156 618.195312 412.121094 618.304688 C 411.578125 618.410156 411.03125 618.492188 410.480469 618.546875 C 409.929688 618.601562 409.378906 618.628906 408.824219 618.628906 C 408.273438 618.628906 407.71875 618.601562 407.167969 618.546875 C 406.621094 618.492188 406.074219 618.410156 405.53125 618.304688 C 404.988281 618.195312 404.453125 618.0625 403.921875 617.902344 C 403.394531 617.738281 402.875 617.554688 402.363281 617.34375 C 401.851562 617.128906 401.351562 616.894531 400.863281 616.632812 C 400.375 616.371094 399.902344 616.089844 399.441406 615.78125 C 398.984375 615.472656 398.539062 615.144531 398.113281 614.792969 C 397.683594 614.441406 397.273438 614.070312 396.882812 613.679688 C 396.492188 613.289062 396.121094 612.878906 395.769531 612.449219 C 395.421875 612.023438 395.089844 611.578125 394.785156 611.121094 C 394.476562 610.660156 394.191406 610.183594 393.933594 609.695312 C 393.671875 609.210938 393.433594 608.710938 393.222656 608.199219 C 393.011719 607.6875 392.824219 607.167969 392.664062 606.636719 C 392.503906 606.109375 392.371094 605.570312 392.261719 605.027344 C 392.15625 604.488281 392.074219 603.941406 392.019531 603.390625 C 391.964844 602.839844 391.9375 602.285156 391.9375 601.734375 C 391.9375 601.179688 391.964844 600.628906 392.019531 600.078125 C 392.074219 599.527344 392.15625 598.980469 392.261719 598.4375 C 392.371094 597.894531 392.503906 597.359375 392.664062 596.828125 C 392.824219 596.300781 393.011719 595.777344 393.222656 595.269531 C 393.433594 594.757812 393.671875 594.257812 393.933594 593.769531 C 394.191406 593.28125 394.476562 592.808594 394.785156 592.347656 C 395.089844 591.886719 395.421875 591.441406 395.769531 591.015625 C 396.121094 590.585938 396.492188 590.179688 396.882812 589.785156 C 397.273438 589.394531 397.683594 589.023438 398.113281 588.671875 C 398.539062 588.320312 398.984375 587.992188 399.441406 587.683594 C 399.902344 587.378906 400.375 587.09375 400.863281 586.832031 C 401.351562 586.574219 401.851562 586.335938 402.363281 586.125 C 402.875 585.914062 403.394531 585.726562 403.921875 585.566406 C 404.453125 585.40625 404.988281 585.269531 405.53125 585.164062 C 406.074219 585.054688 406.621094 584.972656 407.167969 584.917969 C 407.71875 584.867188 408.273438 584.839844 408.824219 584.839844 C 409.378906 584.839844 409.929688 584.867188 410.480469 584.917969 C 411.03125 584.972656 411.578125 585.054688 412.121094 585.164062 C 412.660156 585.269531 413.199219 585.40625 413.726562 585.566406 C 414.257812 585.726562 414.777344 585.914062 415.289062 586.125 C 415.796875 586.335938 416.296875 586.574219 416.785156 586.832031 C 417.273438 587.09375 417.746094 587.378906 418.207031 587.683594 C 418.667969 587.992188 419.109375 588.320312 419.539062 588.671875 C 419.964844 589.023438 420.375 589.394531 420.765625 589.785156 C 421.15625 590.179688 421.527344 590.585938 421.878906 591.015625 C 422.230469 591.441406 422.558594 591.886719 422.867188 592.347656 C 423.171875 592.808594 423.457031 593.28125 423.71875 593.769531 C 423.976562 594.257812 424.214844 594.757812 424.425781 595.269531 C 424.636719 595.777344 424.824219 596.300781 424.984375 596.828125 C 425.144531 597.359375 425.28125 597.894531 425.386719 598.4375 C 425.496094 598.980469 425.578125 599.527344 425.628906 600.078125 C 425.683594 600.628906 425.710938 601.179688 425.710938 601.734375 Z M 425.710938 601.734375 " fill-opacity="1" fill-rule="nonzero"/><path fill="#e2e2e2" d="M 511.101562 308.710938 C 511.101562 309.101562 511.070312 309.496094 511 309.886719 C 510.933594 310.277344 510.832031 310.664062 510.695312 311.050781 C 510.5625 311.4375 510.394531 311.816406 510.195312 312.195312 C 509.992188 312.570312 509.761719 312.941406 509.496094 313.304688 C 509.230469 313.667969 508.9375 314.019531 508.609375 314.367188 C 508.285156 314.714844 507.929688 315.050781 507.546875 315.378906 C 507.160156 315.703125 506.75 316.019531 506.3125 316.324219 C 505.871094 316.628906 505.410156 316.917969 504.921875 317.195312 C 504.429688 317.476562 503.917969 317.738281 503.386719 317.988281 C 502.851562 318.238281 502.296875 318.472656 501.722656 318.691406 C 501.148438 318.90625 500.554688 319.109375 499.945312 319.296875 C 499.335938 319.480469 498.710938 319.648438 498.070312 319.800781 C 497.433594 319.949219 496.785156 320.082031 496.121094 320.195312 C 495.460938 320.308594 494.789062 320.40625 494.113281 320.480469 C 493.433594 320.558594 492.75 320.617188 492.0625 320.65625 C 491.375 320.695312 490.6875 320.710938 489.996094 320.710938 C 489.304688 320.710938 488.613281 320.695312 487.925781 320.65625 C 487.238281 320.617188 486.554688 320.558594 485.875 320.480469 C 485.199219 320.40625 484.527344 320.308594 483.867188 320.195312 C 483.207031 320.082031 482.554688 319.949219 481.917969 319.800781 C 481.277344 319.648438 480.652344 319.480469 480.042969 319.296875 C 479.433594 319.109375 478.839844 318.90625 478.265625 318.691406 C 477.691406 318.472656 477.136719 318.238281 476.601562 317.988281 C 476.070312 317.738281 475.558594 317.476562 475.066406 317.195312 C 474.578125 316.917969 474.117188 316.628906 473.675781 316.324219 C 473.238281 316.019531 472.828125 315.703125 472.441406 315.378906 C 472.058594 315.050781 471.703125 314.714844 471.378906 314.367188 C 471.050781 314.019531 470.757812 313.664062 470.492188 313.304688 C 470.226562 312.941406 469.996094 312.570312 469.792969 312.195312 C 469.59375 311.816406 469.425781 311.4375 469.289062 311.050781 C 469.15625 310.664062 469.054688 310.277344 468.988281 309.886719 C 468.917969 309.496094 468.886719 309.101562 468.886719 308.710938 C 468.886719 308.316406 468.917969 307.925781 468.988281 307.53125 C 469.054688 307.140625 469.15625 306.753906 469.289062 306.367188 C 469.425781 305.980469 469.59375 305.601562 469.792969 305.226562 C 469.996094 304.847656 470.226562 304.480469 470.492188 304.117188 C 470.757812 303.753906 471.050781 303.398438 471.378906 303.050781 C 471.703125 302.703125 472.058594 302.367188 472.441406 302.039062 C 472.828125 301.714844 473.238281 301.398438 473.675781 301.09375 C 474.117188 300.789062 474.578125 300.5 475.066406 300.222656 C 475.558594 299.945312 476.070312 299.679688 476.601562 299.429688 C 477.136719 299.179688 477.691406 298.949219 478.265625 298.730469 C 478.839844 298.511719 479.433594 298.308594 480.042969 298.125 C 480.652344 297.9375 481.277344 297.769531 481.917969 297.621094 C 482.554688 297.46875 483.207031 297.335938 483.867188 297.222656 C 484.527344 297.109375 485.199219 297.011719 485.875 296.9375 C 486.554688 296.859375 487.238281 296.800781 487.925781 296.765625 C 488.613281 296.726562 489.304688 296.707031 489.996094 296.707031 C 490.6875 296.707031 491.375 296.726562 492.0625 296.765625 C 492.75 296.800781 493.433594 296.859375 494.113281 296.9375 C 494.789062 297.011719 495.460938 297.109375 496.121094 297.222656 C 496.785156 297.335938 497.433594 297.46875 498.070312 297.621094 C 498.710938 297.769531 499.335938 297.9375 499.945312 298.125 C 500.554688 298.308594 501.148438 298.511719 501.722656 298.730469 C 502.296875 298.949219 502.851562 299.179688 503.386719 299.429688 C 503.917969 299.679688 504.429688 299.945312 504.921875 300.222656 C 505.410156 300.5 505.871094 300.789062 506.3125 301.09375 C 506.75 301.398438 507.160156 301.714844 507.546875 302.039062 C 507.929688 302.367188 508.285156 302.703125 508.609375 303.050781 C 508.9375 303.398438 509.230469 303.753906 509.496094 304.117188 C 509.761719 304.480469 509.992188 304.847656 510.195312 305.226562 C 510.394531 305.601562 510.5625 305.980469 510.699219 306.367188 C 510.832031 306.753906 510.933594 307.140625 511 307.53125 C 511.070312 307.925781 511.101562 308.316406 511.101562 308.710938 Z M 511.101562 308.710938 " fill-opacity="1" fill-rule="nonzero"/><path fill="#e2e2e2" d="M 338.949219 308.710938 C 338.949219 309.101562 338.914062 309.496094 338.847656 309.886719 C 338.78125 310.277344 338.679688 310.664062 338.542969 311.050781 C 338.410156 311.4375 338.242188 311.816406 338.039062 312.195312 C 337.839844 312.570312 337.605469 312.941406 337.34375 313.304688 C 337.078125 313.667969 336.78125 314.019531 336.457031 314.367188 C 336.132812 314.714844 335.777344 315.050781 335.390625 315.378906 C 335.007812 315.703125 334.597656 316.019531 334.15625 316.324219 C 333.71875 316.628906 333.253906 316.917969 332.765625 317.195312 C 332.277344 317.476562 331.765625 317.738281 331.230469 317.988281 C 330.699219 318.238281 330.144531 318.472656 329.566406 318.691406 C 328.992188 318.90625 328.402344 319.109375 327.792969 319.296875 C 327.179688 319.480469 326.558594 319.648438 325.917969 319.800781 C 325.28125 319.949219 324.628906 320.082031 323.96875 320.195312 C 323.308594 320.308594 322.636719 320.40625 321.957031 320.480469 C 321.28125 320.558594 320.597656 320.617188 319.910156 320.65625 C 319.222656 320.695312 318.53125 320.710938 317.839844 320.710938 C 317.148438 320.710938 316.460938 320.695312 315.773438 320.65625 C 315.082031 320.617188 314.402344 320.558594 313.722656 320.480469 C 313.042969 320.40625 312.375 320.308594 311.714844 320.195312 C 311.050781 320.082031 310.402344 319.949219 309.761719 319.800781 C 309.125 319.648438 308.5 319.480469 307.890625 319.296875 C 307.28125 319.109375 306.6875 318.90625 306.113281 318.691406 C 305.539062 318.472656 304.984375 318.238281 304.449219 317.988281 C 303.914062 317.738281 303.402344 317.476562 302.914062 317.195312 C 302.425781 316.917969 301.960938 316.628906 301.523438 316.324219 C 301.085938 316.019531 300.671875 315.703125 300.289062 315.378906 C 299.90625 315.050781 299.550781 314.714844 299.222656 314.367188 C 298.898438 314.019531 298.601562 313.664062 298.339844 313.304688 C 298.074219 312.941406 297.839844 312.570312 297.640625 312.195312 C 297.441406 311.816406 297.273438 311.4375 297.136719 311.050781 C 297.003906 310.664062 296.902344 310.277344 296.832031 309.886719 C 296.765625 309.496094 296.730469 309.101562 296.730469 308.710938 C 296.730469 308.316406 296.765625 307.925781 296.832031 307.53125 C 296.902344 307.140625 297.003906 306.753906 297.136719 306.367188 C 297.273438 305.980469 297.441406 305.601562 297.640625 305.226562 C 297.839844 304.847656 298.074219 304.480469 298.339844 304.117188 C 298.601562 303.753906 298.898438 303.398438 299.222656 303.050781 C 299.550781 302.703125 299.90625 302.367188 300.289062 302.039062 C 300.671875 301.714844 301.085938 301.398438 301.523438 301.09375 C 301.960938 300.789062 302.425781 300.5 302.914062 300.222656 C 303.402344 299.945312 303.914062 299.679688 304.449219 299.429688 C 304.984375 299.179688 305.539062 298.949219 306.113281 298.730469 C 306.6875 298.511719 307.28125 298.308594 307.890625 298.125 C 308.5 297.9375 309.125 297.769531 309.761719 297.621094 C 310.402344 297.46875 311.050781 297.335938 311.714844 297.222656 C 312.375 297.109375 313.042969 297.011719 313.722656 296.9375 C 314.402344 296.859375 315.082031 296.800781 315.773438 296.765625 C 316.460938 296.726562 317.148438 296.707031 317.839844 296.707031 C 318.53125 296.707031 319.222656 296.726562 319.910156 296.765625 C 320.597656 296.800781 321.28125 296.859375 321.957031 296.9375 C 322.636719 297.011719 323.304688 297.109375 323.96875 297.222656 C 324.628906 297.335938 325.28125 297.46875 325.917969 297.621094 C 326.558594 297.769531 327.179688 297.9375 327.792969 298.125 C 328.402344 298.308594 328.992188 298.511719 329.566406 298.730469 C 330.144531 298.949219 330.699219 299.179688 331.230469 299.429688 C 331.765625 299.679688 332.277344 299.945312 332.765625 300.222656 C 333.253906 300.5 333.71875 300.789062 334.15625 301.09375 C 334.597656 301.398438 335.007812 301.714844 335.390625 302.039062 C 335.777344 302.367188 336.132812 302.703125 336.457031 303.050781 C 336.78125 303.398438 337.078125 303.753906 337.34375 304.117188 C 337.605469 304.480469 337.839844 304.847656 338.039062 305.226562 C 338.242188 305.601562 338.410156 305.980469 338.542969 306.367188 C 338.679688 306.753906 338.78125 307.140625 338.847656 307.53125 C 338.914062 307.925781 338.949219 308.316406 338.949219 308.710938 Z M 338.949219 308.710938 " fill-opacity="1" fill-rule="nonzero"/><path fill="#ffffff" d="M 261.929688 231.691406 C 261.300781 231.699219 260.699219 231.578125 260.125 231.328125 C 259.851562 231.214844 259.59375 231.074219 259.351562 230.90625 C 259.105469 230.742188 258.878906 230.550781 258.671875 230.339844 C 258.464844 230.132812 258.28125 229.902344 258.117188 229.65625 C 257.953125 229.410156 257.816406 229.148438 257.707031 228.875 C 257.59375 228.601562 257.511719 228.316406 257.457031 228.027344 C 257.398438 227.738281 257.371094 227.445312 257.375 227.148438 C 257.375 226.851562 257.40625 226.558594 257.464844 226.269531 C 257.523438 225.980469 257.613281 225.699219 257.726562 225.425781 C 258.734375 223.042969 283.09375 166.890625 348.132812 144.90625 C 348.417969 144.792969 348.710938 144.710938 349.011719 144.65625 C 349.3125 144.601562 349.617188 144.582031 349.921875 144.589844 C 350.226562 144.597656 350.53125 144.636719 350.828125 144.707031 C 351.125 144.777344 351.414062 144.875 351.691406 145.003906 C 351.96875 145.132812 352.230469 145.289062 352.476562 145.46875 C 352.722656 145.652344 352.949219 145.855469 353.152344 146.085938 C 353.355469 146.3125 353.535156 146.558594 353.691406 146.820312 C 353.84375 147.085938 353.972656 147.363281 354.070312 147.652344 C 354.167969 147.945312 354.234375 148.242188 354.273438 148.542969 C 354.3125 148.847656 354.316406 149.152344 354.292969 149.457031 C 354.269531 149.761719 354.214844 150.0625 354.128906 150.355469 C 354.042969 150.652344 353.929688 150.933594 353.789062 151.203125 C 353.644531 151.476562 353.476562 151.726562 353.28125 151.964844 C 353.085938 152.203125 352.871094 152.414062 352.632812 152.609375 C 352.394531 152.800781 352.140625 152.96875 351.867188 153.109375 C 351.597656 153.25 351.3125 153.359375 351.019531 153.441406 C 289.949219 174.09375 266.222656 228.386719 266.042969 228.945312 C 265.871094 229.351562 265.644531 229.71875 265.363281 230.058594 C 265.082031 230.394531 264.757812 230.6875 264.394531 230.929688 C 264.027344 231.171875 263.636719 231.359375 263.21875 231.488281 C 262.796875 231.617188 262.367188 231.683594 261.929688 231.691406 Z M 261.929688 231.691406 " fill-opacity="1" fill-rule="nonzero"/><path fill="#ffffff" d="M 386.507812 438.996094 L 386.34375 438.996094 C 272.394531 435.132812 228.824219 385.78125 227.019531 383.6875 C 226.820312 383.464844 226.644531 383.222656 226.492188 382.964844 C 226.339844 382.707031 226.214844 382.4375 226.121094 382.152344 C 226.023438 381.867188 225.953125 381.578125 225.914062 381.28125 C 225.875 380.984375 225.863281 380.6875 225.882812 380.386719 C 225.902344 380.089844 225.953125 379.792969 226.03125 379.503906 C 226.109375 379.214844 226.214844 378.9375 226.347656 378.667969 C 226.484375 378.402344 226.640625 378.148438 226.828125 377.910156 C 227.011719 377.675781 227.214844 377.460938 227.441406 377.265625 C 227.671875 377.070312 227.914062 376.898438 228.175781 376.75 C 228.4375 376.605469 228.710938 376.484375 228.996094 376.390625 C 229.28125 376.300781 229.570312 376.234375 229.867188 376.203125 C 230.167969 376.167969 230.464844 376.164062 230.761719 376.1875 C 231.0625 376.214844 231.355469 376.269531 231.644531 376.351562 C 231.929688 376.433594 232.207031 376.546875 232.472656 376.683594 C 232.738281 376.824219 232.988281 376.988281 233.21875 377.175781 C 233.453125 377.363281 233.664062 377.574219 233.855469 377.804688 C 233.964844 377.929688 244.683594 390.042969 268.621094 402.441406 C 290.8125 413.941406 329.316406 428.039062 386.652344 429.96875 C 386.949219 429.972656 387.242188 430.007812 387.53125 430.070312 C 387.820312 430.132812 388.101562 430.222656 388.371094 430.339844 C 388.644531 430.457031 388.902344 430.601562 389.144531 430.769531 C 389.390625 430.9375 389.613281 431.128906 389.820312 431.34375 C 390.027344 431.554688 390.210938 431.785156 390.371094 432.035156 C 390.53125 432.285156 390.664062 432.546875 390.773438 432.820312 C 390.882812 433.097656 390.964844 433.378906 391.015625 433.671875 C 391.070312 433.964844 391.09375 434.257812 391.089844 434.554688 C 391.085938 434.851562 391.050781 435.144531 390.988281 435.433594 C 390.925781 435.722656 390.835938 436.003906 390.71875 436.273438 C 390.601562 436.546875 390.457031 436.804688 390.289062 437.046875 C 390.121094 437.292969 389.929688 437.515625 389.71875 437.722656 C 389.503906 437.929688 389.273438 438.113281 389.023438 438.273438 C 388.777344 438.433594 388.515625 438.570312 388.238281 438.679688 C 387.964844 438.789062 387.679688 438.867188 387.386719 438.921875 C 387.097656 438.976562 386.804688 439 386.507812 438.996094 Z M 386.507812 438.996094 " fill-opacity="1" fill-rule="nonzero"/><path fill="#ffffff" d="M 240.171875 646.714844 C 239.628906 646.710938 239.105469 646.617188 238.597656 646.429688 C 238.09375 646.238281 237.632812 645.964844 237.226562 645.613281 C 236.816406 645.257812 236.480469 644.84375 236.222656 644.367188 C 235.960938 643.890625 235.792969 643.386719 235.714844 642.851562 L 210.457031 469.679688 C 210.414062 469.382812 210.398438 469.085938 210.417969 468.785156 C 210.433594 468.488281 210.476562 468.191406 210.550781 467.902344 C 210.625 467.613281 210.726562 467.332031 210.855469 467.0625 C 210.984375 466.792969 211.136719 466.535156 211.316406 466.296875 C 211.496094 466.058594 211.699219 465.835938 211.921875 465.636719 C 212.144531 465.4375 212.382812 465.257812 212.640625 465.105469 C 212.898438 464.953125 213.167969 464.828125 213.449219 464.726562 C 213.730469 464.628906 214.019531 464.558594 214.316406 464.515625 C 214.613281 464.472656 214.910156 464.457031 215.210938 464.472656 C 215.507812 464.492188 215.804688 464.535156 216.09375 464.609375 C 216.382812 464.683594 216.664062 464.785156 216.933594 464.914062 C 217.203125 465.042969 217.457031 465.199219 217.699219 465.378906 C 217.9375 465.558594 218.15625 465.757812 218.355469 465.980469 C 218.558594 466.203125 218.734375 466.445312 218.886719 466.703125 C 219.039062 466.960938 219.164062 467.230469 219.265625 467.511719 C 219.363281 467.792969 219.433594 468.082031 219.476562 468.378906 L 244.734375 641.550781 C 244.777344 641.84375 244.792969 642.136719 244.777344 642.433594 C 244.761719 642.730469 244.714844 643.019531 244.644531 643.304688 C 244.570312 643.59375 244.46875 643.871094 244.34375 644.136719 C 244.214844 644.402344 244.0625 644.65625 243.886719 644.890625 C 243.710938 645.128906 243.511719 645.347656 243.292969 645.546875 C 243.074219 645.742188 242.835938 645.917969 242.582031 646.070312 C 242.328125 646.222656 242.0625 646.347656 241.785156 646.445312 C 241.507812 646.546875 241.222656 646.617188 240.929688 646.660156 Z M 240.171875 646.714844 " fill-opacity="1" fill-rule="nonzero"/><path fill="#ffffff" d="M 244.589844 663.574219 C 234.777344 663.574219 236.238281 678.769531 246 678.769531 C 255.757812 678.769531 254.441406 663.574219 244.589844 663.574219 Z M 244.589844 663.574219 " fill-opacity="1" fill-rule="nonzero"/><path fill="#ffffff" d="M 210.058594 357.789062 C 200.246094 357.789062 201.707031 373.003906 211.484375 373.003906 C 221.261719 373.003906 219.839844 357.789062 210.058594 357.789062 Z M 210.058594 357.789062 " fill-opacity="1" fill-rule="nonzero"/><path fill="#ffffff" d="M 421.074219 423.039062 C 411.261719 423.039062 412.703125 438.253906 422.480469 438.253906 C 432.261719 438.253906 430.835938 423.039062 421.074219 423.039062 Z M 421.074219 423.039062 " fill-opacity="1" fill-rule="nonzero"/><path fill="#ffffff" d="M 256.101562 247.753906 C 246.289062 247.753906 247.75 262.96875 257.507812 262.96875 C 267.269531 262.96875 265.878906 247.753906 256.101562 247.753906 Z M 256.101562 247.753906 " fill-opacity="1" fill-rule="nonzero"/><path fill="#ffffff" d="M 375.03125 136.457031 C 365.21875 136.457031 366.679688 151.65625 376.441406 151.65625 C 386.199219 151.65625 384.8125 136.457031 375.03125 136.457031 Z M 375.03125 136.457031 " fill-opacity="1" fill-rule="nonzero"/><path fill="#fed41e" d="M 290.382812 220.824219 L 395.167969 216.347656 C 396.554688 248.207031 380.210938 275.15625 356.8125 282.878906 C 337.921875 289.089844 320.945312 280.640625 319.085938 279.667969 C 299.546875 269.523438 287.964844 246.3125 290.382812 220.824219 Z M 290.382812 220.824219 " fill-opacity="1" fill-rule="nonzero"/><path fill="#fff1b6" d="M 385.335938 221.726562 L 296.730469 227.140625 C 296.730469 227.140625 293.519531 269.089844 338.949219 279.628906 Z M 385.335938 221.726562 " fill-opacity="1" fill-rule="nonzero"/><path fill="#fed41e" d="M 534.089844 220.824219 L 429.230469 216.347656 C 427.824219 248.207031 444.1875 275.15625 467.585938 282.878906 C 486.476562 289.089844 503.433594 280.640625 505.3125 279.667969 C 524.960938 269.523438 536.523438 246.3125 534.089844 220.824219 Z M 534.089844 220.824219 " fill-opacity="1" fill-rule="nonzero"/><path fill="#fff1b6" d="M 524.886719 227.050781 L 437.691406 222.71875 C 437.621094 224.265625 437.617188 225.816406 437.675781 227.363281 C 437.738281 228.910156 437.859375 230.453125 438.046875 231.992188 C 438.234375 233.527344 438.488281 235.054688 438.800781 236.574219 C 439.117188 238.089844 439.492188 239.589844 439.933594 241.078125 C 440.371094 242.5625 440.871094 244.027344 441.433594 245.472656 C 441.992188 246.914062 442.613281 248.332031 443.289062 249.726562 C 443.96875 251.117188 444.703125 252.480469 445.496094 253.8125 C 446.289062 255.144531 447.132812 256.441406 448.03125 257.703125 C 448.929688 258.960938 449.882812 260.183594 450.882812 261.367188 C 451.882812 262.546875 452.929688 263.6875 454.023438 264.78125 C 455.121094 265.878906 456.257812 266.925781 457.441406 267.925781 C 458.625 268.925781 459.84375 269.875 461.105469 270.777344 C 462.367188 271.675781 463.664062 272.519531 464.996094 273.3125 C 466.324219 274.101562 467.6875 274.835938 469.078125 275.515625 C 470.472656 276.195312 471.890625 276.8125 473.332031 277.375 C 474.777344 277.933594 476.242188 278.433594 477.726562 278.871094 Z M 524.886719 227.050781 " fill-opacity="1" fill-rule="nonzero"/><path fill="#fed41e" d="M 386.507812 232.648438 L 436.808594 232.648438 L 436.808594 243.929688 L 386.507812 243.929688 Z M 386.507812 232.648438 " fill-opacity="1" fill-rule="nonzero"/><path fill="#1995af" d="M 555.59375 166.1875 C 575.242188 165.933594 592.238281 174.597656 599.667969 189.019531 C 600.570312 190.824219 606.164062 202.214844 602.953125 214.164062 C 597.539062 234.398438 568.675781 249.234375 531.4375 247.375 L 535.042969 231.691406 C 554.746094 233.496094 568.710938 223.65625 569.882812 213.460938 C 569.945312 212.648438 569.945312 211.839844 569.886719 211.027344 C 569.828125 210.21875 569.710938 209.414062 569.535156 208.621094 C 569.359375 207.828125 569.125 207.050781 568.835938 206.292969 C 568.542969 205.535156 568.199219 204.800781 567.796875 204.09375 C 567.398438 203.386719 566.949219 202.710938 566.453125 202.070312 C 565.953125 201.429688 565.410156 200.828125 564.820312 200.265625 C 564.234375 199.703125 563.609375 199.1875 562.945312 198.71875 C 562.28125 198.25 561.585938 197.832031 560.863281 197.46875 C 551.445312 193.316406 535.332031 201.347656 525.375 220.824219 L 507.800781 218.585938 C 507.679688 215.5625 507.824219 212.550781 508.234375 209.550781 C 508.644531 206.554688 509.316406 203.613281 510.25 200.734375 C 511.179688 197.855469 512.355469 195.078125 513.777344 192.410156 C 515.203125 189.738281 516.847656 187.210938 518.714844 184.832031 C 520.195312 182.972656 533.3125 166.476562 555.59375 166.1875 Z M 555.59375 166.1875 " fill-opacity="1" fill-rule="nonzero"/><path fill="#1995af" d="M 405.992188 305.621094 C 398.578125 305.605469 391.363281 304.402344 384.34375 302.011719 C 384.019531 301.875 383.738281 301.683594 383.492188 301.433594 C 383.246094 301.1875 383.054688 300.902344 382.917969 300.578125 C 382.78125 300.257812 382.710938 299.921875 382.703125 299.574219 C 382.699219 299.222656 382.757812 298.886719 382.882812 298.558594 C 383.007812 298.230469 383.1875 297.941406 383.425781 297.683594 C 383.664062 297.429688 383.941406 297.226562 384.257812 297.078125 C 384.570312 296.925781 384.90625 296.84375 385.253906 296.824219 C 385.601562 296.800781 385.941406 296.847656 386.273438 296.957031 C 392.664062 299.152344 399.238281 300.265625 405.992188 300.296875 L 406.28125 300.296875 C 420.714844 300.296875 431.664062 294.613281 439.042969 283.621094 C 439.246094 283.320312 439.496094 283.074219 439.796875 282.875 C 440.09375 282.675781 440.421875 282.542969 440.773438 282.476562 C 441.125 282.40625 441.480469 282.40625 441.832031 282.480469 C 442.183594 282.550781 442.507812 282.6875 442.804688 282.890625 C 443.105469 283.089844 443.351562 283.339844 443.550781 283.640625 C 443.75 283.941406 443.882812 284.265625 443.949219 284.617188 C 444.019531 284.972656 444.015625 285.324219 443.945312 285.675781 C 443.875 286.027344 443.738281 286.355469 443.535156 286.652344 C 433.289062 301.867188 418.261719 305.621094 405.992188 305.621094 Z M 405.992188 305.621094 " fill-opacity="1" fill-rule="nonzero"/></svg>