<svg xmlns="http://www.w3.org/2000/svg" xmlns:xlink="http://www.w3.org/1999/xlink" width="1080" zoomAndPan="magnify" viewBox="0 0 810 809.999993" height="1080" preserveAspectRatio="xMidYMid meet" version="1.0"><path fill="#111827" d="M 455.628906 101.25 L 455.628906 151.871094 L 622.351562 151.871094 L 304.851562 469.378906 L 340.621094 505.148438 L 658.128906 187.648438 L 658.128906 354.371094 L 708.75 354.371094 L 708.75 101.25 Z M 202.5 202.5 C 146.554688 202.5 101.25 247.804688 101.25 303.75 L 101.25 607.5 C 101.25 663.445312 146.554688 708.75 202.5 708.75 L 506.25 708.75 C 562.195312 708.75 607.5 663.445312 607.5 607.5 L 607.5 354.371094 L 556.871094 405 L 556.871094 607.5 C 556.871094 635.429688 534.179688 658.128906 506.25 658.128906 L 202.5 658.128906 C 174.570312 658.128906 151.871094 635.429688 151.871094 607.5 L 151.871094 303.75 C 151.871094 275.820312 174.570312 253.128906 202.5 253.128906 L 405 253.128906 L 455.628906 202.5 Z M 202.5 202.5 " fill-opacity="1" fill-rule="nonzero"/></svg>