<svg xmlns="http://www.w3.org/2000/svg" xmlns:xlink="http://www.w3.org/1999/xlink" width="1080" zoomAndPan="magnify" viewBox="0 0 810 809.999993" height="1080" preserveAspectRatio="xMidYMid meet" version="1.0"><path fill="#4338ca" d="M 425.007812 661.628906 L 352.011719 661.628906 L 352.011719 585.210938 L 425.007812 585.210938 Z M 577.085938 289.425781 C 577.085938 312.492188 571.820312 333.023438 561.304688 351.011719 C 550.785156 369.011719 536.90625 384.847656 519.675781 398.539062 C 502.949219 411.460938 484.507812 423.4375 464.359375 434.464844 C 444.207031 445.488281 426.777344 455.058594 412.078125 463.167969 L 412.84375 535.40625 L 356.574219 535.40625 L 356.574219 432.753906 C 370.257812 426.421875 387.875 418.246094 409.417969 408.230469 C 430.957031 398.222656 447.816406 388.652344 459.984375 379.53125 C 478.996094 365.335938 492.679688 351.714844 501.046875 338.65625 C 509.410156 325.605469 513.59375 310.460938 513.59375 293.226562 C 513.59375 269.652344 506.75 251.46875 493.058594 238.667969 C 479.375 225.871094 460.746094 216.683594 437.175781 211.101562 C 419.429688 206.796875 401.179688 204.390625 382.425781 203.878906 C 363.664062 203.375 344.910156 203.121094 326.160156 203.121094 L 333.382812 148.75 C 334.390625 148.75 339.332031 148.691406 348.210938 148.5625 C 357.082031 148.4375 365.566406 148.371094 373.683594 148.371094 C 397.5 148.371094 419.238281 149.957031 438.886719 153.125 C 458.523438 156.296875 477.851562 162.316406 496.863281 171.183594 C 520.9375 182.339844 540.332031 197.609375 555.03125 216.996094 C 569.730469 236.386719 577.085938 260.527344 577.085938 289.425781 " fill-opacity="1" fill-rule="nonzero"/><path fill="#4338ca" d="M 405 771.832031 C 341.925781 771.832031 279.710938 755.546875 225.082031 724.734375 L 211.46875 717.054688 L 196.386719 721.125 L 99.804688 747.199219 L 66.863281 756.019531 L 75.691406 723.078125 L 100.050781 632.171875 L 104.394531 615.953125 L 95.371094 601.789062 C 57.949219 543.039062 38.167969 474.992188 38.167969 405 C 38.167969 202.730469 202.730469 38.167969 405 38.167969 C 607.269531 38.167969 771.832031 202.730469 771.832031 405 C 771.832031 607.269531 607.269531 771.832031 405 771.832031 Z M 405 0 C 181.324219 0 0 181.324219 0 405 C 0 484.964844 23.183594 559.507812 63.183594 622.296875 L 38.824219 713.203125 L 12.886719 810 L 109.683594 784.0625 L 206.328125 757.976562 C 265.03125 791.085938 332.800781 810 405 810 C 628.675781 810 810 628.675781 810 405 C 810 181.324219 628.675781 0 405 0 " fill-opacity="1" fill-rule="nonzero"/></svg>